<?xml version="1.0" encoding="UTF-8"?>
<svg version="1.1" xmlns="http://www.w3.org/2000/svg" width="1280" height="1280">
<path d="M0 0 C1.18802719 0.00222061 2.37605438 0.00444122 3.6000824 0.00672913 C4.58053528 0.00651009 4.58053528 0.00651009 5.58079529 0.00628662 C7.75058766 0.00698569 9.92029517 0.01477774 12.09007263 0.02259827 C13.59079949 0.02446247 15.09152696 0.02588636 16.59225464 0.02688599 C20.54934865 0.03071099 24.50640616 0.04054112 28.46348572 0.05158997 C32.49851488 0.06180446 36.53354991 0.06638369 40.56858826 0.07142639 C48.49113108 0.08216341 56.41364419 0.09923962 64.33616638 0.12025452 C64.36300951 2.93281733 64.38292826 5.74512693 64.39866638 8.55775452 C64.40704529 9.36019592 64.41542419 10.16263733 64.42405701 10.98939514 C64.43268068 13.03320673 64.38844788 15.07709353 64.33616638 17.12025452 C63.33616638 18.12025452 63.33616638 18.12025452 61.50753784 18.24050903 C60.71033829 18.23828842 59.91313873 18.23606781 59.09178162 18.23377991 C58.19092331 18.23370438 57.290065 18.23362885 56.36190796 18.23355103 C55.38274918 18.22838974 54.40359039 18.22322845 53.39476013 18.21791077 C52.39735306 18.21649582 51.39994598 18.21508087 50.37231445 18.21362305 C47.17273515 18.20800566 43.9732247 18.19545023 40.77366638 18.18275452 C38.61025593 18.17774176 36.44684439 18.17317846 34.28343201 18.16908264 C28.96765009 18.15803058 23.65191993 18.14075431 18.33616638 18.12025452 C18.33616638 23.73025452 18.33616638 29.34025452 18.33616638 35.12025452 C20.14588928 35.11239929 20.14588928 35.11239929 21.99217224 35.10438538 C26.45180016 35.08633841 30.91142484 35.07482363 35.37107849 35.06532288 C37.30435223 35.06028196 39.23762214 35.05344933 41.17088318 35.04481506 C43.9434351 35.03273887 46.71593679 35.02702395 49.48851013 35.02259827 C50.79319496 35.01485634 50.79319496 35.01485634 52.12423706 35.00695801 C54.19522452 35.00676266 56.26610963 35.05817284 58.33616638 35.12025452 C62.35003124 39.13411938 59.33616638 46.44379239 59.33616638 52.12025452 C45.80616638 52.12025452 32.27616638 52.12025452 18.33616638 52.12025452 C18.33616638 58.39025452 18.33616638 64.66025452 18.33616638 71.12025452 C19.7546991 71.1150177 21.17323181 71.10978088 22.63475037 71.10438538 C27.87709426 71.08634143 33.11943538 71.07482474 38.36180115 71.06532288 C40.63459229 71.06028126 42.90738018 71.05344814 45.18016052 71.04481506 C48.4392019 71.03274191 51.69820055 71.02702465 54.95726013 71.02259827 C55.98016647 71.01743698 57.00307281 71.0122757 58.05697632 71.00695801 C58.99787613 71.00688248 59.93877594 71.00680695 60.90818787 71.00672913 C61.74091721 71.00450851 62.57364655 71.0022879 63.43161011 71 C65.33616638 71.12025452 65.33616638 71.12025452 66.33616638 72.12025452 C66.43597852 74.79756831 66.47496514 77.44329626 66.46116638 80.12025452 C66.46503357 80.87048889 66.46890076 81.62072327 66.47288513 82.39369202 C66.46277692 87.99364398 66.46277692 87.99364398 65.33616638 89.12025452 C63.21935321 89.21447192 61.0993588 89.23768213 58.98045349 89.23377991 C58.31706467 89.23392593 57.65367584 89.23407196 56.97018433 89.23422241 C54.76792683 89.23352332 52.56575293 89.22573116 50.36351013 89.21791077 C48.84036302 89.21604657 47.31721531 89.21462268 45.79406738 89.21362305 C41.77778987 89.20979798 37.76154831 89.1999678 33.74528503 89.18891907 C29.64993272 89.17870471 25.55457462 89.17412537 21.45921326 89.16908264 C13.4181811 89.15834551 5.37717821 89.14126923 -2.66383362 89.12025452 C-3.97689141 85.14120636 -3.8041154 81.10986465 -3.79322815 76.97108459 C-3.79585663 75.74366798 -3.79585663 75.74366798 -3.79853821 74.49145508 C-3.80293433 71.79087698 -3.80002742 69.09036451 -3.79664612 66.38978577 C-3.7973196 64.51459745 -3.79829001 62.63940921 -3.79954529 60.76422119 C-3.80101906 56.83772448 -3.79887725 52.91125053 -3.79420471 48.98475647 C-3.78849582 43.94043838 -3.79179578 38.89617335 -3.79777718 33.85185719 C-3.80138138 29.98212276 -3.80024506 26.11240104 -3.79764938 22.24266624 C-3.79698033 20.38183778 -3.79780778 18.52100818 -3.80012894 16.66018105 C-3.80265442 14.06716962 -3.7988169 11.47424571 -3.79322815 8.88124084 C-3.79525238 8.10565826 -3.79727661 7.33007568 -3.79936218 6.5309906 C-3.77382647 0.17036337 -3.77382647 0.17036337 0 0 Z " fill="#010101" transform="translate(784.6638336181641,599.8797454833984)"/>
<path d="M0 0 C0.87891907 -0.01283524 1.75783813 -0.02567047 2.66339111 -0.03889465 C3.62364197 -0.04628159 4.58389282 -0.05366852 5.57324219 -0.0612793 C6.56201355 -0.06935104 7.55078491 -0.07742279 8.56951904 -0.08573914 C10.67458328 -0.09961029 12.7796703 -0.11031879 14.88476562 -0.11816406 C18.06523477 -0.135204 21.24461679 -0.17904046 24.42480469 -0.22338867 C38.67578229 -0.3330078 52.69626183 0.01690363 63.87011719 10.17700195 C70.4567946 17.82833628 72.37865995 25.44545193 72.10449219 35.3840332 C71.27757471 45.23813319 67.4126513 51.74299179 59.87011719 58.17700195 C47.0557193 66.46752907 31.50566334 65.45518551 16.87011719 65.17700195 C16.87797241 66.21425415 16.87797241 66.21425415 16.88598633 67.27246094 C16.90669219 70.38646547 16.91975682 73.50045557 16.93261719 76.61450195 C16.94099609 77.70311523 16.949375 78.79172852 16.95800781 79.91333008 C16.9628418 81.46503906 16.9628418 81.46503906 16.96777344 83.0480957 C16.97562866 84.48560181 16.97562866 84.48560181 16.98364258 85.95214844 C16.87011719 88.17700195 16.87011719 88.17700195 15.87011719 89.17700195 C14.39359055 89.27580992 12.91244483 89.30779441 11.43261719 89.30981445 C10.09070313 89.31174805 10.09070313 89.31174805 8.72167969 89.3137207 C7.31015625 89.30791992 7.31015625 89.30791992 5.87011719 89.30200195 C4.45859375 89.30780273 4.45859375 89.30780273 3.01855469 89.3137207 C2.12394531 89.31243164 1.22933594 89.31114258 0.30761719 89.30981445 C-0.51867187 89.30868652 -1.34496094 89.30755859 -2.19628906 89.30639648 C-4.12988281 89.17700195 -4.12988281 89.17700195 -5.12988281 88.17700195 C-5.23035085 85.47399896 -5.26604734 82.79651849 -5.25927734 80.09301758 C-5.26102966 79.24591721 -5.26278198 78.39881683 -5.2645874 77.52604675 C-5.26900691 74.71176129 -5.26606759 71.89753811 -5.26269531 69.08325195 C-5.26336832 67.13651518 -5.26433832 65.18977848 -5.26559448 63.24304199 C-5.26707159 59.15738121 -5.26491649 55.07174224 -5.26025391 50.98608398 C-5.25455661 45.7365368 -5.25783555 40.48704073 -5.26382637 35.23749542 C-5.26743164 31.21591809 -5.26629356 27.19435296 -5.26369858 23.17277527 C-5.26302921 21.23658746 -5.26385806 19.30039857 -5.26617813 17.36421204 C-5.2687041 14.66310671 -5.26486486 11.96208536 -5.25927734 9.26098633 C-5.26130157 8.4526384 -5.26332581 7.64429047 -5.26541138 6.81144714 C-5.23942693 0.0664876 -5.23942693 0.0664876 0 0 Z M16.87011719 18.17700195 C16.84545838 22.14631185 16.82727696 26.11559229 16.81518555 30.08496094 C16.81014662 31.43620581 16.80331542 32.78744521 16.79467773 34.13867188 C16.78259299 36.0772063 16.77741891 38.01577996 16.77246094 39.9543457 C16.76722412 41.12215576 16.7619873 42.28996582 16.7565918 43.49316406 C16.56350223 46.09591746 16.56350223 46.09591746 17.87011719 47.17700195 C32.7829034 48.17765625 32.7829034 48.17765625 46.37011719 43.05200195 C49.43123902 39.53171184 50.59625844 36.81493227 50.87011719 32.17700195 C50.022418 26.61986283 48.21553449 23.71396952 43.87011719 20.17700195 C40.30318505 18.46043217 37.51185623 17.9355781 33.56933594 17.98168945 C32.59287109 17.98813477 31.61640625 17.99458008 30.61035156 18.0012207 C29.09924805 18.02635742 29.09924805 18.02635742 27.55761719 18.05200195 C26.01750977 18.06553711 26.01750977 18.06553711 24.44628906 18.0793457 C21.9206582 18.10283994 19.39550909 18.13569065 16.87011719 18.17700195 Z " fill="#010101" transform="translate(516.1298828125,599.822998046875)"/>
<path d="M0 0 C3.92260717 1.47764744 5.09842338 3.40965357 6.99609375 7.07421875 C7.5478125 8.1223877 8.09953125 9.17055664 8.66796875 10.25048828 C9.54388672 11.95180908 9.54388672 11.95180908 10.4375 13.6875 C11.37380441 15.47155785 12.31482697 17.25306929 13.25637817 19.03436279 C13.89821675 20.24863873 14.53889312 21.46352965 15.17843628 22.67901611 C18.18544448 28.38528964 21.31617949 34.01590213 24.5 39.625 C25.024729 40.54990234 25.54945801 41.47480469 26.09008789 42.42773438 C31.7550315 52.37391064 37.53064861 62.25586165 43.31933594 72.13037109 C46.21986465 77.0828427 49.10963381 82.04159256 52 87 C49.30969851 89.69030149 47.25062274 89.23656887 43.59541321 89.24884033 C42.24566658 89.2380545 42.24566658 89.2380545 40.86865234 89.22705078 C39.92226395 89.22734283 38.97587555 89.22763489 38.00080872 89.22793579 C34.86242609 89.2265388 31.72427882 89.21096024 28.5859375 89.1953125 C26.4140333 89.19158368 24.24212743 89.18873609 22.07022095 89.18673706 C16.34581888 89.17909027 10.62151784 89.15943281 4.89715576 89.1373291 C-0.94094475 89.11689317 -6.77906155 89.10774017 -12.6171875 89.09765625 C-24.07816946 89.0761879 -35.53907634 89.04203937 -47 89 C-48 86 -48 86 -46.83984375 83.5234375 C-45.89818359 81.96496094 -45.89818359 81.96496094 -44.9375 80.375 C-44.18834044 79.11172136 -43.44109994 77.84730358 -42.6953125 76.58203125 C-42.27024414 75.8648291 -41.84517578 75.14762695 -41.40722656 74.40869141 C-38.63721543 69.6673781 -35.98567459 64.85883597 -33.3125 60.0625 C-28.57829337 51.59523409 -23.8325971 43.1346049 -19.0625 34.6875 C-18.52012695 33.72682617 -17.97775391 32.76615234 -17.41894531 31.77636719 C-14.67618472 26.92849959 -11.90068381 22.10504722 -9.0625 17.3125 C-5.74800312 11.68614154 -2.84407212 5.87566547 0 0 Z M-12 55 C-15.46060135 61.29192492 -15.46060135 61.29192492 -17 68 C-4.79 68 7.42 68 20 68 C19.0877058 62.29835358 19.0877058 62.29835358 15 55 C6.09 55 -2.82 55 -12 55 Z " fill="#000000" transform="translate(633,600)"/>
<path d="M0 0 C1.00390625 1.74609375 1.00390625 1.74609375 1 4 C-0.14453125 7.19921875 -0.14453125 7.19921875 -1.8125 10.6875 C-2.62654297 12.42580078 -2.62654297 12.42580078 -3.45703125 14.19921875 C-5 17 -5 17 -7 18 C-8.81826962 17.27150761 -10.60572621 16.46552115 -12.375 15.625 C-21.76419224 11.59303826 -31.19398495 10.8181621 -41 14 C-44.13021208 15.66654608 -44.13021208 15.66654608 -44.875 18.3125 C-45.0407079 21.87521982 -44.1704954 23.19217228 -42 26 C-39.09675587 27.3322483 -39.09675587 27.3322483 -35.6875 28.0625 C-34.43839844 28.38476562 -33.18929687 28.70703125 -31.90234375 29.0390625 C-31.2563623 29.19793945 -30.61038086 29.35681641 -29.94482422 29.52050781 C-4.4649975 35.80250376 -4.4649975 35.80250376 2.75 46.625 C5.6799305 52.19186796 5.78376686 58.03802257 4.57421875 64.15234375 C2.22701492 71.4243556 -2.83258715 76.96411455 -9.3125 80.875 C-23.02254983 87.69557755 -40.71678638 86.26337737 -55 82 C-58.10505685 80.83894006 -61.05672808 79.52089574 -64 78 C-64.71929687 77.69191406 -65.43859375 77.38382813 -66.1796875 77.06640625 C-68 76 -68 76 -69 73 C-67.93650501 70.5107842 -66.83016927 68.19266245 -65.5625 65.8125 C-65.22412109 65.15830078 -64.88574219 64.50410156 -64.53710938 63.83007812 C-63.70030902 62.21540701 -62.85130254 60.60707237 -62 59 C-58.4510016 59.7525587 -55.26958976 61.07962964 -51.9375 62.5 C-45.39179234 65.2833417 -40.66437684 66.18221518 -33.625 66.1875 C-32.77421875 66.19974609 -31.9234375 66.21199219 -31.046875 66.22460938 C-26.64248792 66.2349 -22.93669061 66.23497375 -19 64 C-17.5216774 61.04335481 -17.93967217 58.25770263 -18 55 C-25.19904998 51.02427762 -32.36413132 49.22266814 -40.3359375 47.37695312 C-50.15975596 44.97978466 -59.33420672 41.85527831 -65 33 C-68.52074779 25.63843645 -67.49610244 17.8092467 -64.9609375 10.28515625 C-61.88014374 2.95887841 -55.91334757 -0.60675142 -49 -4 C-46.29032727 -4.97606491 -43.86573223 -5.48322862 -41 -6 C-39.97519531 -6.19207031 -38.95039063 -6.38414062 -37.89453125 -6.58203125 C-26.01577784 -7.85688242 -10.26465158 -6.58830474 0 0 Z " fill="#010101" transform="translate(494,605)"/>
<path d="M0 0 C2.54956055 0.07397461 2.54956055 0.07397461 3.54956055 1.07397461 C3.64475423 3.87387181 3.67509999 6.64903635 3.66308594 9.44921875 C3.66323196 10.32718613 3.66337799 11.2051535 3.66352844 12.10972595 C3.66282899 15.02621896 3.6550351 17.94264894 3.6472168 20.85913086 C3.64535273 22.87552353 3.64392878 24.89191665 3.64292908 26.90830994 C3.63910299 32.22662599 3.62927193 37.54491491 3.6182251 42.86322021 C3.60801293 48.28568149 3.60343187 53.70814713 3.59838867 59.13061523 C3.58764975 69.77841364 3.57057224 80.42619187 3.54956055 91.07397461 C-2.41341665 91.24118215 -8.37652038 91.40178245 -14.33984375 91.55615234 C-16.37016641 91.60965464 -18.40044159 91.66499008 -20.43066406 91.72216797 C-23.3420996 91.80385011 -26.25363998 91.87902462 -29.1652832 91.95288086 C-30.07882065 91.97991592 -30.99235809 92.00695099 -31.93357849 92.0348053 C-34.10528448 92.08671232 -36.27814578 92.08586697 -38.45043945 92.07397461 C-40.27040851 90.25400555 -39.57684537 87.73507817 -39.58596802 85.31260681 C-39.58394379 84.4855574 -39.58191956 83.658508 -39.57983398 82.80639648 C-39.5815863 81.93978897 -39.58333862 81.07318146 -39.58514404 80.18031311 C-39.5895637 77.30109688 -39.58662417 74.42194152 -39.58325195 71.54272461 C-39.58392496 69.55114734 -39.58489496 67.55957015 -39.58615112 65.56799316 C-39.58762825 61.38817566 -39.58547306 57.20837948 -39.58081055 53.02856445 C-39.57511325 47.65794935 -39.57839218 42.28738421 -39.58438301 36.91677094 C-39.58798822 32.80254741 -39.58685022 28.68833582 -39.58425522 24.57411194 C-39.58358584 22.59326675 -39.58441475 20.61242049 -39.58673477 18.63157654 C-39.58926064 15.86820585 -39.58542163 13.10491727 -39.57983398 10.34155273 C-39.58185822 9.51450333 -39.58388245 8.68745392 -39.58596802 7.83534241 C-39.56470189 2.18823705 -39.56470189 2.18823705 -38.45043945 1.07397461 C-35.92899094 0.91375261 -33.43187729 0.8144578 -30.9074707 0.75756836 C-29.76564583 0.72639671 -29.76564583 0.72639671 -28.60075378 0.69459534 C-26.15491062 0.62902821 -23.7089536 0.5702788 -21.26293945 0.51147461 C-19.63206876 0.46828024 -18.00120913 0.42466565 -16.37036133 0.38061523 C-10.91378302 0.2369432 -5.45721362 0.11699821 0 0 Z " fill="#000000" transform="translate(391.450439453125,598.926025390625)"/>
<path d="M0 0 C2.42905691 2.1576539 4.76774901 4.35745281 7.046875 6.671875 C3.1049333 11.55237425 -1.07262575 15.7299333 -5.953125 19.671875 C-8.65412643 18.39804026 -10.96491605 16.99143495 -13.328125 15.171875 C-20.08209111 10.35167603 -26.81334868 9.8327228 -34.953125 10.671875 C-41.95135195 12.572628 -48.44139605 16.57731094 -52.2734375 22.82421875 C-55.69791157 30.21198274 -56.45643882 38.46396641 -54.1875 46.32421875 C-53.24941386 48.56147973 -52.20153292 50.59410517 -50.953125 52.671875 C-50.416875 53.579375 -49.880625 54.486875 -49.328125 55.421875 C-43.32772407 61.10646536 -35.38014698 64.01313652 -27.171875 63.890625 C-20.73599993 63.25610211 -15.78906761 60.92164275 -10.953125 56.671875 C-10.293125 56.671875 -9.633125 56.671875 -8.953125 56.671875 C-8.953125 56.011875 -8.953125 55.351875 -8.953125 54.671875 C-4.09642327 55.08917844 -1.50176425 57.4719608 1.859375 60.734375 C2.36146484 61.20681641 2.86355469 61.67925781 3.38085938 62.16601562 C4.61110289 63.32595952 5.83014565 64.49776315 7.046875 65.671875 C2.73575018 73.75350126 -5.22446933 77.73967566 -13.53125 80.9453125 C-26.65881029 84.88358059 -42.35201951 83.71327026 -54.578125 77.546875 C-65.88164392 70.65398506 -72.88926387 61.84962148 -76.828125 49.234375 C-79.68884207 37.22958014 -78.34924291 24.18390497 -72.265625 13.359375 C-65.03775926 2.40214365 -55.42402798 -4.59717054 -42.69140625 -7.78515625 C-28.36520178 -10.62587297 -11.81243673 -9.31245012 0 0 Z " fill="#010101" transform="translate(762.953125,607.328125)"/>
<path d="M0 0 C1.19209901 0.00394052 1.19209901 0.00394052 2.40828082 0.00796065 C3.24855639 0.0068068 4.08883195 0.00565296 4.95457041 0.00446415 C7.80696497 0.00178987 10.65930454 0.00632627 13.51169631 0.01075396 C15.56258528 0.01031842 17.6134742 0.00944384 19.66436282 0.00816479 C25.32869269 0.00591638 30.99300384 0.00994583 36.65733132 0.01494285 C42.75484855 0.01924223 48.85236464 0.0178013 54.94988295 0.01704058 C65.52375939 0.01651502 76.09762905 0.01963045 86.67150351 0.02527842 C97.76524745 0.03118893 108.85898894 0.03504305 119.95273444 0.03613123 C120.64168005 0.03619997 121.33062566 0.03626871 122.04044841 0.03633953 C125.53904177 0.03667785 129.03763513 0.03697924 132.5362285 0.03726641 C157.33753662 0.03936862 182.13884153 0.046111 206.94014785 0.05556902 C231.03910601 0.06474862 255.13806329 0.0718346 279.23702285 0.07607684 C279.97943711 0.07620836 280.72185137 0.07633989 281.48676303 0.0764754 C288.94217317 0.07779388 296.39758331 0.0790697 303.85299346 0.08031426 C319.04146371 0.08285069 334.22993391 0.08567194 349.41840407 0.08866534 C350.11679478 0.08880263 350.81518548 0.08893992 351.53473954 0.08908137 C398.19762766 0.09828704 444.86051389 0.11415357 491.5233998 0.13100848 C491.8533998 1.78100848 492.1833998 3.43100848 492.5233998 5.13100848 C328.1833998 5.13100848 163.8433998 5.13100848 -5.4766002 5.13100848 C-5.8066002 3.81100848 -6.1366002 2.49100848 -6.4766002 1.13100848 C-4.70792105 -0.63767068 -2.35599575 0.00740862 0 0 Z " fill="#060606" transform="translate(358.4766001999378,693.8689915239811)"/>
<path d="M0 0 C1.19209901 0.00394052 1.19209901 0.00394052 2.40828082 0.00796065 C3.24855639 0.0068068 4.08883195 0.00565296 4.95457041 0.00446415 C7.80696497 0.00178987 10.65930454 0.00632627 13.51169631 0.01075396 C15.56258528 0.01031842 17.6134742 0.00944384 19.66436282 0.00816479 C25.32869269 0.00591638 30.99300384 0.00994583 36.65733132 0.01494285 C42.75484855 0.01924223 48.85236464 0.0178013 54.94988295 0.01704058 C65.52375939 0.01651502 76.09762905 0.01963045 86.67150351 0.02527842 C97.76524745 0.03118893 108.85898894 0.03504305 119.95273444 0.03613123 C120.64168005 0.03619997 121.33062566 0.03626871 122.04044841 0.03633953 C125.53904177 0.03667785 129.03763513 0.03697924 132.5362285 0.03726641 C157.33753662 0.03936862 182.13884153 0.046111 206.94014785 0.05556902 C231.03910601 0.06474862 255.13806329 0.0718346 279.23702285 0.07607684 C279.97943711 0.07620836 280.72185137 0.07633989 281.48676303 0.0764754 C288.94217317 0.07779388 296.39758331 0.0790697 303.85299346 0.08031426 C319.04146371 0.08285069 334.22993391 0.08567194 349.41840407 0.08866534 C350.11679478 0.08880263 350.81518548 0.08893992 351.53473954 0.08908137 C398.19762766 0.09828704 444.86051389 0.11415357 491.5233998 0.13100848 C491.90558747 1.78715505 492.23735082 3.45557872 492.5233998 5.13100848 C490.75472065 6.89968763 488.40279535 6.25460833 486.0467996 6.26201695 C484.85470059 6.25807643 484.85470059 6.25807643 483.63851878 6.2540563 C482.79824321 6.25521015 481.95796765 6.25636399 481.09222919 6.2575528 C478.23983463 6.26022709 475.38749506 6.25569068 472.53510329 6.25126299 C470.48421432 6.25169853 468.4333254 6.25257311 466.38243678 6.25385216 C460.71810692 6.25610058 455.05379576 6.25207113 449.38946828 6.2470741 C443.29195105 6.24277472 437.19443496 6.24421565 431.09691665 6.24497637 C420.52304021 6.24550193 409.94917055 6.2423865 399.37529609 6.23673853 C388.28155215 6.23082802 377.18781066 6.2269739 366.09406516 6.22588572 C365.40511955 6.22581698 364.71617394 6.22574824 364.00635119 6.22567742 C360.50775783 6.2253391 357.00916447 6.22503771 353.5105711 6.22475054 C328.70926298 6.22264833 303.90795807 6.21590596 279.10665175 6.20644793 C255.00769359 6.19726833 230.90873631 6.19018235 206.80977675 6.18594012 C206.06736249 6.18580859 205.32494823 6.18567706 204.56003657 6.18554155 C197.10462643 6.18422307 189.64921629 6.18294725 182.19380614 6.18170269 C167.00533589 6.17916626 151.81686569 6.17634501 136.62839553 6.17335162 C135.93000482 6.17321433 135.23161412 6.17307704 134.51206006 6.17293559 C87.84917194 6.16372992 41.18628571 6.14786339 -5.4766002 6.13100848 C-5.85878787 4.4748619 -6.19055122 2.80643823 -6.4766002 1.13100848 C-4.70792105 -0.63767068 -2.35599575 0.00740862 0 0 Z " fill="#080808" transform="translate(358.4766001999378,724.8689915239811)"/>
<path d="M0 0 C1.08946678 -0.0049926 1.08946678 -0.0049926 2.20094299 -0.01008606 C3.74015671 -0.015158 5.27938145 -0.0174943 6.81860352 -0.01733398 C9.17808096 -0.01951891 11.53708986 -0.0376669 13.89648438 -0.05664062 C15.38932131 -0.05957477 16.88216048 -0.06155942 18.375 -0.0625 C19.43756264 -0.07327827 19.43756264 -0.07327827 20.52159119 -0.08427429 C25.52508288 -0.06085462 25.52508288 -0.06085462 27.75390625 2.16796875 C28.41390625 1.50796875 29.07390625 0.84796875 29.75390625 0.16796875 C32.29925766 -0.03052196 34.71107384 -0.110549 37.25390625 -0.08203125 C37.94355469 -0.08976563 38.63320313 -0.0975 39.34375 -0.10546875 C44.50057332 -0.08536418 44.50057332 -0.08536418 46.75390625 2.16796875 C46.9140625 4.078125 46.9140625 4.078125 46.81640625 6.23046875 C46.79578125 7.52984375 46.77515625 8.82921875 46.75390625 10.16796875 C47.24890625 10.66296875 47.24890625 10.66296875 47.75390625 11.16796875 C47.88667969 10.45769531 48.01945312 9.74742187 48.15625 9.015625 C48.33285156 8.09652344 48.50945312 7.17742188 48.69140625 6.23046875 C48.86542969 5.31394531 49.03945313 4.39742187 49.21875 3.453125 C49.75390625 1.16796875 49.75390625 1.16796875 50.75390625 0.16796875 C55.27804951 -0.0508465 59.8075239 -0.01782191 64.33642578 -0.01733398 C66.61249622 -0.01951552 68.88807824 -0.03765354 71.1640625 -0.05664062 C72.60807126 -0.05957548 74.05208232 -0.06155966 75.49609375 -0.0625 C76.81464355 -0.06660889 78.13319336 -0.07071777 79.49169922 -0.07495117 C82.75390625 0.16796875 82.75390625 0.16796875 85.75390625 2.16796875 C87.03385532 6.29134898 87.11386223 10.0881008 85.75390625 14.16796875 C81.61534109 18.30653391 75.10678981 17.28202677 69.57421875 17.30078125 C67.75390625 17.16796875 67.75390625 17.16796875 66.75390625 16.16796875 C66.68146572 14.14832676 66.67013437 12.12629751 66.69140625 10.10546875 C66.70042969 9.00074219 66.70945312 7.89601563 66.71875 6.7578125 C66.73035156 5.90316406 66.74195313 5.04851563 66.75390625 4.16796875 C64.64756907 5.87625796 63.81589017 6.68945291 63.4609375 9.4296875 C63.51314453 10.63044922 63.51314453 10.63044922 63.56640625 11.85546875 C63.59347656 12.66371094 63.62054688 13.47195313 63.6484375 14.3046875 C63.70064453 15.22701172 63.70064453 15.22701172 63.75390625 16.16796875 C59.79390625 16.66296875 59.79390625 16.66296875 55.75390625 17.16796875 C55.09390625 15.84796875 54.43390625 14.52796875 53.75390625 13.16796875 C53.09390625 13.16796875 52.43390625 13.16796875 51.75390625 13.16796875 C51.75390625 14.15796875 51.75390625 15.14796875 51.75390625 16.16796875 C48.42057292 16.16796875 45.08723958 16.16796875 41.75390625 16.16796875 C40.76390625 16.49796875 39.77390625 16.82796875 38.75390625 17.16796875 C31.51945649 17.62729889 31.51945649 17.62729889 28.25390625 15.66796875 C27.75890625 15.17296875 27.26390625 14.67796875 26.75390625 14.16796875 C26.38265625 14.68359375 26.01140625 15.19921875 25.62890625 15.73046875 C23.75390625 17.16796875 23.75390625 17.16796875 20.56640625 16.85546875 C19.63828125 16.62859375 18.71015625 16.40171875 17.75390625 16.16796875 C17.75390625 12.20796875 17.75390625 8.24796875 17.75390625 4.16796875 C16.76390625 4.49796875 15.77390625 4.82796875 14.75390625 5.16796875 C14.75390625 8.79796875 14.75390625 12.42796875 14.75390625 16.16796875 C13.43390625 16.49796875 12.11390625 16.82796875 10.75390625 17.16796875 C9.79320191 14.28585573 9.64808742 12.46946831 9.69140625 9.48046875 C9.70042969 8.67222656 9.70945312 7.86398437 9.71875 7.03125 C9.73035156 6.41636719 9.74195313 5.80148437 9.75390625 5.16796875 C9.09390625 4.83796875 8.43390625 4.50796875 7.75390625 4.16796875 C7.75390625 8.12796875 7.75390625 12.08796875 7.75390625 16.16796875 C6.43390625 16.49796875 5.11390625 16.82796875 3.75390625 17.16796875 C3.09390625 15.84796875 2.43390625 14.52796875 1.75390625 13.16796875 C1.09390625 14.48796875 0.43390625 15.80796875 -0.24609375 17.16796875 C-2.5790415 17.21038598 -4.91311942 17.20889812 -7.24609375 17.16796875 C-9.00169317 15.41236933 -8.37831294 13.13214433 -8.3828125 10.796875 C-8.37894531 10.09433594 -8.37507813 9.39179687 -8.37109375 8.66796875 C-8.37496094 7.96542969 -8.37882812 7.26289062 -8.3828125 6.5390625 C-8.36883025 -0.71772546 -6.57347844 0.0102972 0 0 Z M-4.24609375 4.16796875 C-4.24609375 7.13796875 -4.24609375 10.10796875 -4.24609375 13.16796875 C-3.91609375 13.16796875 -3.58609375 13.16796875 -3.24609375 13.16796875 C-3.24609375 10.19796875 -3.24609375 7.22796875 -3.24609375 4.16796875 C-3.57609375 4.16796875 -3.90609375 4.16796875 -4.24609375 4.16796875 Z M41.75390625 4.16796875 C42.75390625 6.16796875 42.75390625 6.16796875 42.75390625 6.16796875 Z M56.75390625 4.16796875 C55.43765431 6.80047263 56.00576967 7.96975931 56.69140625 10.79296875 C56.88605469 11.61023438 57.08070313 12.4275 57.28125 13.26953125 C57.43722656 13.89601563 57.59320313 14.5225 57.75390625 15.16796875 C59.93722314 13.4066052 59.93722314 13.4066052 59.94921875 11.22265625 C59.92601562 10.50335937 59.9028125 9.7840625 59.87890625 9.04296875 C59.83765625 7.76421875 59.79640625 6.48546875 59.75390625 5.16796875 C58.76390625 4.83796875 57.77390625 4.50796875 56.75390625 4.16796875 Z M74.75390625 4.16796875 C74.42390625 4.82796875 74.09390625 5.48796875 73.75390625 6.16796875 C74.41390625 6.82796875 75.07390625 7.48796875 75.75390625 8.16796875 C75.42390625 6.84796875 75.09390625 5.52796875 74.75390625 4.16796875 Z M79.75390625 4.16796875 C79.75390625 7.13796875 79.75390625 10.10796875 79.75390625 13.16796875 C80.74390625 12.17796875 81.73390625 11.18796875 82.75390625 10.16796875 C82.67857378 7.54067735 82.67857378 7.54067735 81.75390625 5.16796875 C81.09390625 4.83796875 80.43390625 4.50796875 79.75390625 4.16796875 Z M24.75390625 5.16796875 C25.75390625 7.16796875 25.75390625 7.16796875 25.75390625 7.16796875 Z M30.75390625 5.16796875 C30.75390625 5.49796875 30.75390625 5.82796875 30.75390625 6.16796875 C33.22890625 6.66296875 33.22890625 6.66296875 35.75390625 7.16796875 C36.08390625 9.47796875 36.41390625 11.78796875 36.75390625 14.16796875 C37.08390625 14.16796875 37.41390625 14.16796875 37.75390625 14.16796875 C37.75390625 11.19796875 37.75390625 8.22796875 37.75390625 5.16796875 C35.08726435 3.8346478 33.58710322 4.49694842 30.75390625 5.16796875 Z M24.75390625 9.16796875 C23.43390625 9.49796875 22.11390625 9.82796875 20.75390625 10.16796875 C20.75390625 10.82796875 20.75390625 11.48796875 20.75390625 12.16796875 C22.40390625 12.16796875 24.05390625 12.16796875 25.75390625 12.16796875 C25.42390625 11.17796875 25.09390625 10.18796875 24.75390625 9.16796875 Z M30.75390625 10.16796875 C30.75390625 10.82796875 30.75390625 11.48796875 30.75390625 12.16796875 C31.41390625 11.83796875 32.07390625 11.50796875 32.75390625 11.16796875 C32.09390625 10.83796875 31.43390625 10.50796875 30.75390625 10.16796875 Z M74.75390625 9.16796875 C73.43390625 9.49796875 72.11390625 9.82796875 70.75390625 10.16796875 C70.75390625 10.82796875 70.75390625 11.48796875 70.75390625 12.16796875 C73.22890625 12.66296875 73.22890625 12.66296875 75.75390625 13.16796875 C75.42390625 11.84796875 75.09390625 10.52796875 74.75390625 9.16796875 Z " fill="#0E0E0E" transform="translate(361.24609375,703.83203125)"/>
<path d="M0 0 C1.79244141 0.01740234 1.79244141 0.01740234 3.62109375 0.03515625 C5.41740234 0.04869141 5.41740234 0.04869141 7.25 0.0625 C8.17683594 0.07410156 9.10367188 0.08570313 10.05859375 0.09765625 C10.38859375 0.75765625 10.71859375 1.41765625 11.05859375 2.09765625 C12.37859375 1.43765625 13.69859375 0.77765625 15.05859375 0.09765625 C15.71859375 1.08765625 16.37859375 2.07765625 17.05859375 3.09765625 C17.67915649 2.36748291 17.67915649 2.36748291 18.31225586 1.62255859 C21.25206714 -0.94448478 24.90776948 -0.33281249 28.62109375 -0.27734375 C29.40162109 -0.28894531 30.18214844 -0.30054688 30.98632812 -0.3125 C33.25 -0.30078125 33.25 -0.30078125 37.05859375 0.09765625 C37.71859375 1.08765625 38.37859375 2.07765625 39.05859375 3.09765625 C39.38859375 2.10765625 39.71859375 1.11765625 40.05859375 0.09765625 C44.62097306 0.01045994 49.18313761 -0.04280297 53.74609375 -0.08984375 C55.03966797 -0.11498047 56.33324219 -0.14011719 57.66601562 -0.16601562 C58.91318359 -0.17568359 60.16035156 -0.18535156 61.4453125 -0.1953125 C62.59217529 -0.21102295 63.73903809 -0.2267334 64.9206543 -0.24291992 C68.3747796 0.13197347 70.25155164 1.10444945 73.05859375 3.09765625 C73.05859375 2.43765625 73.05859375 1.77765625 73.05859375 1.09765625 C76.52359375 0.60265625 76.52359375 0.60265625 80.05859375 0.09765625 C80.68359375 1.97265625 80.68359375 1.97265625 81.05859375 4.09765625 C80.39859375 4.75765625 79.73859375 5.41765625 79.05859375 6.09765625 C80.04859375 7.58265625 80.04859375 7.58265625 81.05859375 9.09765625 C81.43359375 11.59765625 81.43359375 11.59765625 81.05859375 14.09765625 C78.52331587 16.87061644 77.01338395 17.10152348 73.22265625 17.42578125 C71.70944034 17.41640942 70.19626081 17.38947239 68.68359375 17.34765625 C67.89227051 17.33669922 67.10094727 17.32574219 66.28564453 17.31445312 C59.19040235 17.18329735 52.12635914 16.73398239 45.05859375 16.09765625 C44.56359375 10.65265625 44.56359375 10.65265625 44.05859375 5.09765625 C44.05859375 8.72765625 44.05859375 12.35765625 44.05859375 16.09765625 C42.73859375 16.42765625 41.41859375 16.75765625 40.05859375 17.09765625 C39.39859375 15.77765625 38.73859375 14.45765625 38.05859375 13.09765625 C37.39859375 14.41765625 36.73859375 15.73765625 36.05859375 17.09765625 C35.06859375 16.76765625 34.07859375 16.43765625 33.05859375 16.09765625 C32.56359375 12.13765625 32.56359375 12.13765625 32.05859375 8.09765625 C32.05859375 10.73765625 32.05859375 13.37765625 32.05859375 16.09765625 C31.06859375 16.42765625 30.07859375 16.75765625 29.05859375 17.09765625 C29.05859375 12.14765625 29.05859375 7.19765625 29.05859375 2.09765625 C28.39859375 2.09765625 27.73859375 2.09765625 27.05859375 2.09765625 C26.46789361 4.04368899 26.46789361 4.04368899 26.05859375 6.09765625 C26.38859375 6.42765625 26.71859375 6.75765625 27.05859375 7.09765625 C27.13039339 8.61693663 27.14251382 10.13933107 27.12109375 11.66015625 C27.11207031 12.48644531 27.10304688 13.31273437 27.09375 14.1640625 C27.08214844 14.80214844 27.07054687 15.44023438 27.05859375 16.09765625 C24.30859375 16.78515625 24.30859375 16.78515625 21.05859375 17.09765625 C18.68359375 15.66015625 18.68359375 15.66015625 17.05859375 14.09765625 C16.06859375 15.08765625 15.07859375 16.07765625 14.05859375 17.09765625 C13.06859375 16.76765625 12.07859375 16.43765625 11.05859375 16.09765625 C10.72859375 15.10765625 10.39859375 14.11765625 10.05859375 13.09765625 C9.39859375 14.41765625 8.73859375 15.73765625 8.05859375 17.09765625 C6.24617323 17.12452904 4.43364142 17.1439934 2.62109375 17.16015625 C1.61175781 17.17175781 0.60242188 17.18335938 -0.4375 17.1953125 C-2.94140625 17.09765625 -2.94140625 17.09765625 -3.94140625 16.09765625 C-4.04115657 13.58629521 -4.08022808 11.1086221 -4.06640625 8.59765625 C-4.07027344 7.89511719 -4.07414063 7.19257812 -4.078125 6.46875 C-4.06592122 0.13499074 -4.06592122 0.13499074 0 0 Z M61.05859375 4.09765625 C61.05859375 6.07765625 61.05859375 8.05765625 61.05859375 10.09765625 C59.73859375 10.09765625 58.41859375 10.09765625 57.05859375 10.09765625 C57.05859375 10.75765625 57.05859375 11.41765625 57.05859375 12.09765625 C59.53359375 12.59265625 59.53359375 12.59265625 62.05859375 13.09765625 C62.05859375 10.12765625 62.05859375 7.15765625 62.05859375 4.09765625 C61.72859375 4.09765625 61.39859375 4.09765625 61.05859375 4.09765625 Z M4.05859375 4.09765625 C2.07859375 5.08765625 2.07859375 5.08765625 0.05859375 6.09765625 C1.70859375 6.09765625 3.35859375 6.09765625 5.05859375 6.09765625 C4.72859375 5.43765625 4.39859375 4.77765625 4.05859375 4.09765625 Z M52.05859375 4.09765625 C50.07859375 5.08765625 50.07859375 5.08765625 48.05859375 6.09765625 C50.53359375 6.59265625 50.53359375 6.59265625 53.05859375 7.09765625 C52.72859375 6.10765625 52.39859375 5.11765625 52.05859375 4.09765625 Z M71.05859375 6.09765625 C71.05859375 8.07765625 71.05859375 10.05765625 71.05859375 12.09765625 C72.04859375 12.59265625 72.04859375 12.59265625 73.05859375 13.09765625 C74.04859375 12.76765625 75.03859375 12.43765625 76.05859375 12.09765625 C76.05859375 11.43765625 76.05859375 10.77765625 76.05859375 10.09765625 C74.43232971 8.71533182 72.76609355 7.3782811 71.05859375 6.09765625 Z M53.05859375 7.09765625 C52.72859375 8.08765625 52.39859375 9.07765625 52.05859375 10.09765625 C50.73859375 10.09765625 49.41859375 10.09765625 48.05859375 10.09765625 C48.05859375 10.75765625 48.05859375 11.41765625 48.05859375 12.09765625 C51.02859375 12.59265625 51.02859375 12.59265625 54.05859375 13.09765625 C54.05859375 11.11765625 54.05859375 9.13765625 54.05859375 7.09765625 C53.72859375 7.09765625 53.39859375 7.09765625 53.05859375 7.09765625 Z M4.05859375 9.09765625 C2.73859375 9.42765625 1.41859375 9.75765625 0.05859375 10.09765625 C0.05859375 10.75765625 0.05859375 11.41765625 0.05859375 12.09765625 C2.53359375 12.59265625 2.53359375 12.59265625 5.05859375 13.09765625 C4.72859375 11.77765625 4.39859375 10.45765625 4.05859375 9.09765625 Z M21.05859375 10.09765625 C21.05859375 10.75765625 21.05859375 11.41765625 21.05859375 12.09765625 C21.71859375 11.76765625 22.37859375 11.43765625 23.05859375 11.09765625 C22.39859375 10.76765625 21.73859375 10.43765625 21.05859375 10.09765625 Z " fill="#0D0D0D" transform="translate(768.94140625,703.90234375)"/>
<path d="M0 0 C-0.2784375 1.5159375 -0.2784375 1.5159375 -0.5625 3.0625 C-0.99768247 6.97914227 -0.70853021 10.14244663 0 14 C-1.6875 15.5625 -1.6875 15.5625 -4 17 C-6.75 16.6875 -6.75 16.6875 -9 16 C-8.125 11.125 -8.125 11.125 -7 10 C-7.79117904 8.00016466 -7.79117904 8.00016466 -9 6 C-9.99 5.67 -10.98 5.34 -12 5 C-12 8.63 -12 12.26 -12 16 C-13.32 16 -14.64 16 -16 16 C-15.67 12.37 -15.34 8.74 -15 5 C-17.64 5 -20.28 5 -23 5 C-23.33 7.31 -23.66 9.62 -24 12 C-22.35 12 -20.7 12 -19 12 C-19 13.65 -19 15.3 -19 17 C-20.670625 16.7525 -20.670625 16.7525 -22.375 16.5 C-26.79486223 15.889069 -26.79486223 15.889069 -31 17 C-32.65 17 -34.3 17 -36 17 C-36.33 12.71 -36.66 8.42 -37 4 C-37.66 4.33 -38.32 4.66 -39 5 C-39.4683265 7.58605332 -39.4683265 7.58605332 -39.625 10.5625 C-39.69976563 11.57441406 -39.77453125 12.58632813 -39.8515625 13.62890625 C-39.90054688 14.41136719 -39.94953125 15.19382812 -40 16 C-41.32 16 -42.64 16 -44 16 C-44 12.37 -44 8.74 -44 5 C-44.66 5 -45.32 5 -46 5 C-46.04898438 5.78246094 -46.09796875 6.56492187 -46.1484375 7.37109375 C-46.22320313 8.38300781 -46.29796875 9.39492188 -46.375 10.4375 C-46.44460938 11.44683594 -46.51421875 12.45617187 -46.5859375 13.49609375 C-46.72257813 14.32238281 -46.85921875 15.14867187 -47 16 C-47.99 16.495 -47.99 16.495 -49 17 C-49.99 16.67 -50.98 16.34 -52 16 C-52.99 16.33 -53.98 16.66 -55 17 C-55 14.69 -55 12.38 -55 10 C-55.99 10 -56.98 10 -58 10 C-58 11.98 -58 13.96 -58 16 C-61.40173767 17.04668851 -64.45050049 17.29579163 -68 17 C-70.375 15.5 -70.375 15.5 -72 14 C-72.33 14.66 -72.66 15.32 -73 16 C-75.29109597 16.08075665 -77.58299267 16.13907731 -79.875 16.1875 C-81.78925781 16.23970703 -81.78925781 16.23970703 -83.7421875 16.29296875 C-84.81726563 16.19628906 -85.89234375 16.09960938 -87 16 C-87.66 15.01 -88.32 14.02 -89 13 C-89.66 14.32 -90.32 15.64 -91 17 C-91.99 16.67 -92.98 16.34 -94 16 C-93.35812082 10.86496656 -92.31727753 6.0056546 -91 1 C-89.35 0.67 -87.7 0.34 -86 0 C-83.71428571 8.42857143 -83.71428571 8.42857143 -84 13 C-83.34 13 -82.68 13 -82 13 C-82.33 12.34 -82.66 11.68 -83 11 C-83.09534254 9.3146804 -83.12985758 7.62550734 -83.125 5.9375 C-83.12757813 5.03902344 -83.13015625 4.14054688 -83.1328125 3.21484375 C-83 1 -83 1 -82 0 C-78.52743085 -0.30867281 -76.6127712 -0.38701339 -73.625 1.5 C-73.08875 1.995 -72.5525 2.49 -72 3 C-71.62230469 2.50886719 -71.24460937 2.01773438 -70.85546875 1.51171875 C-68.28936708 -0.57897883 -66.57429067 -0.30262202 -63.3125 -0.1875 C-62.31863281 -0.16042969 -61.32476563 -0.13335938 -60.30078125 -0.10546875 C-59.54152344 -0.07066406 -58.78226563 -0.03585937 -58 0 C-58 1.98 -58 3.96 -58 6 C-57.34 6 -56.68 6 -56 6 C-56.020625 5.195625 -56.04125 4.39125 -56.0625 3.5625 C-56 1 -56 1 -55 0 C-50.69352364 -0.25342236 -46.37554946 -0.18522638 -42.0625 -0.1875 C-40.84369141 -0.19974609 -39.62488281 -0.21199219 -38.36914062 -0.22460938 C-36.62600586 -0.22750977 -36.62600586 -0.22750977 -34.84765625 -0.23046875 C-33.77523682 -0.23457764 -32.70281738 -0.23868652 -31.59790039 -0.24291992 C-29 0 -29 0 -27 2 C-26.34 1.34 -25.68 0.68 -25 0 C-23.16821289 -0.21118164 -23.16821289 -0.21118164 -20.97265625 -0.16015625 C-20.18052734 -0.14919922 -19.38839844 -0.13824219 -18.57226562 -0.12695312 C-17.74404297 -0.10568359 -16.91582031 -0.08441406 -16.0625 -0.0625 C-14.42847507 -0.02800534 -12.79435059 0.0021206 -11.16015625 0.02734375 C-10.07166382 0.05429321 -10.07166382 0.05429321 -8.96118164 0.08178711 C-0.82920792 -0.25734039 -0.82920792 -0.25734039 0 0 Z M-78 4 C-77 6 -77 6 -77 6 Z M-67 4 C-69.28728734 5.83883881 -69.28728734 5.83883881 -69.125 8.625 C-69.08375 9.40875 -69.0425 10.1925 -69 11 C-67.02 11.66 -65.04 12.32 -63 13 C-62.31506627 10.14221967 -62.31506627 10.14221967 -62 7 C-62.66 6.01 -63.32 5.02 -64 4 C-64.99 4 -65.98 4 -67 4 Z M-33 4 C-33 4.66 -33 5.32 -33 6 C-32.34 5.67 -31.68 5.34 -31 5 C-31.66 4.67 -32.32 4.34 -33 4 Z M-74 8 C-73 11 -73 11 -73 11 Z M-33 10 C-33 10.66 -33 11.32 -33 12 C-31.68 12 -30.36 12 -29 12 C-29 11.34 -29 10.68 -29 10 C-30.32 10 -31.64 10 -33 10 Z " fill="#111111" transform="translate(705,704)"/>
<path d="M0 0 C3.125 0.125 3.125 0.125 6.125 1.125 C6.455 0.795 6.785 0.465 7.125 0.125 C11.07336905 -0.1382246 13.72879269 0.03502627 17.125 2.125 C17.785 1.465 18.445 0.805 19.125 0.125 C21.5 -0.25 21.5 -0.25 24.125 0.125 C26.4375 2.125 26.4375 2.125 28.125 4.125 C28.681875 3.465 29.23875 2.805 29.8125 2.125 C32.125 0.125 32.125 0.125 34.875 -0.125 C35.6175 -0.0425 36.36 0.04 37.125 0.125 C37.62 2.6 37.62 2.6 38.125 5.125 C36.145 5.125 34.165 5.125 32.125 5.125 C32.125 7.435 32.125 9.745 32.125 12.125 C32.785 12.125 33.445 12.125 34.125 12.125 C34.125 10.145 34.125 8.165 34.125 6.125 C35.445 6.125 36.765 6.125 38.125 6.125 C38.785 4.145 39.445 2.165 40.125 0.125 C43 0 43 0 46.125 0.125 C49.56598882 3.56598882 48.79649426 8.41641772 49.125 13.125 C50.115 8.835 51.105 4.545 52.125 0.125 C53.775 0.125 55.425 0.125 57.125 0.125 C57.785 2.765 58.445 5.405 59.125 8.125 C59.785 5.485 60.445 2.845 61.125 0.125 C62.775 0.455 64.425 0.785 66.125 1.125 C66.62 3.105 66.62 3.105 67.125 5.125 C67.785 3.475 68.445 1.825 69.125 0.125 C70.445 0.455 71.765 0.785 73.125 1.125 C73.125 6.405 73.125 11.685 73.125 17.125 C71.805 16.795 70.485 16.465 69.125 16.125 C66.24064062 16.125 63.70320832 16.24790556 60.875 16.625 C59.01875 16.8725 59.01875 16.8725 57.125 17.125 C56.135 15.805 55.145 14.485 54.125 13.125 C53.795 14.115 53.465 15.105 53.125 16.125 C49.73116308 16.41009844 46.33560061 16.64681945 42.9375 16.875 C41.97779297 16.95621094 41.01808594 17.03742187 40.02929688 17.12109375 C32.83578676 17.56913244 32.83578676 17.56913244 28.94921875 15.140625 C28.34722656 14.47546875 27.74523437 13.8103125 27.125 13.125 C26.135 14.61 26.135 14.61 25.125 16.125 C22.17465818 17.13432746 20.7270668 17.36908113 17.8125 16.1875 C17.255625 15.836875 16.69875 15.48625 16.125 15.125 C15.135 15.785 14.145 16.445 13.125 17.125 C12.465 15.805 11.805 14.485 11.125 13.125 C10.465 14.445 9.805 15.765 9.125 17.125 C8.135 16.795 7.145 16.465 6.125 16.125 C6.125 13.815 6.125 11.505 6.125 9.125 C4.475 9.785 2.825 10.445 1.125 11.125 C1.125 12.775 1.125 14.425 1.125 16.125 C-0.8125 16.6875 -0.8125 16.6875 -2.875 17.125 C-4.63059942 15.36940058 -4.00721919 13.08917558 -4.01171875 10.75390625 C-4.00785156 10.05136719 -4.00398438 9.34882812 -4 8.625 C-4.00386719 7.92246094 -4.00773437 7.21992187 -4.01171875 6.49609375 C-3.99953725 0.17389292 -3.99953725 0.17389292 0 0 Z M21.125 4.125 C19.91202351 6.4056707 19.91202351 6.4056707 19.125 9.125 C19.89103959 11.4107711 19.89103959 11.4107711 21.125 13.125 C21.785 12.795 22.445 12.465 23.125 12.125 C23.125 9.815 23.125 7.505 23.125 5.125 C22.465 4.795 21.805 4.465 21.125 4.125 Z M14.125 8.125 C14.455 9.775 14.785 11.425 15.125 13.125 C15.455 13.125 15.785 13.125 16.125 13.125 C16.125 11.475 16.125 9.825 16.125 8.125 C15.465 8.125 14.805 8.125 14.125 8.125 Z M38.125 9.125 C38.455 10.775 38.785 12.425 39.125 14.125 C39.455 14.125 39.785 14.125 40.125 14.125 C40.125 12.475 40.125 10.825 40.125 9.125 C39.465 9.125 38.805 9.125 38.125 9.125 Z " fill="#161616" transform="translate(499.875,703.875)"/>
<path d="M0 0 C3.28133541 2.11463838 4.93976587 3.35514469 6.8125 6.8125 C7.65090474 11.48154707 7.94600166 15.83578369 5.53125 20.046875 C2.92645991 23.13687108 0.79408272 25.63012424 -3.39453125 26.015625 C-12.60805903 26.18138562 -12.60805903 26.18138562 -16.1875 22.8125 C-18.91432327 19.0106791 -20.56833036 15.42607479 -20.25 10.6875 C-19.27471015 5.63191585 -16.44052188 2.46471605 -12.3125 -0.5625 C-7.90416955 -1.85906778 -4.27897212 -1.59412687 0 0 Z " fill="#020202" transform="translate(380.1875,559.1875)"/>
<path d="M0 0 C6.26540516 3.71057976 11.21537874 9.19832349 13.51171875 16.12890625 C14.68245496 24.15153017 13.07697952 30.46772101 8.51171875 37.12890625 C4.87554319 41.40013218 -0.01187176 44.07502676 -5.48828125 45.12890625 C-12.69287465 45.29500639 -19.96586648 44.44962856 -25.3984375 39.328125 C-31.23049993 32.96914112 -33.04003003 27.90518603 -32.859375 19.265625 C-32.14795971 13.25229369 -29.87240184 8.4063444 -25.48046875 4.2109375 C-18.18670918 -1.45451043 -8.93153233 -3.12673738 0 0 Z M-24.48828125 9.12890625 C-27.96378541 13.62163113 -29.16297362 18.25152042 -28.87109375 23.89453125 C-27.67816274 30.85735305 -24.09119982 35.10942119 -18.48828125 39.12890625 C-13.77687941 41.48460717 -7.58444548 40.72057482 -2.48828125 40.12890625 C2.43908208 37.92085471 6.54954025 34.20748589 8.51171875 29.12890625 C9.7500852 23.50262718 10.06828857 18.3763705 7.73828125 13.01953125 C5.0386898 8.85837755 0.94462819 5.34536097 -3.48828125 3.12890625 C-11.99473781 2.08052861 -18.26926623 2.96248332 -24.48828125 9.12890625 Z " fill="#050505" transform="translate(383.48828125,549.87109375)"/>
<path d="M0 0 C1.02528809 0.01458252 2.05057617 0.02916504 3.10693359 0.04418945 C4.22068359 0.05256836 5.33443359 0.06094727 6.48193359 0.06958008 C7.64466797 0.09858398 8.80740234 0.12758789 10.00537109 0.1574707 C11.76107422 0.17197266 11.76107422 0.17197266 13.55224609 0.18676758 C22.21270777 0.30230738 22.21270777 0.30230738 23.38037109 1.4699707 C23.45263611 3.32284572 23.46418329 5.17830948 23.44287109 7.0324707 C23.43384766 8.04438477 23.42482422 9.05629883 23.41552734 10.09887695 C23.40392578 10.88133789 23.39232422 11.66379883 23.38037109 12.4699707 C24.70037109 12.4699707 26.02037109 12.4699707 27.38037109 12.4699707 C27.38037109 8.8399707 27.38037109 5.2099707 27.38037109 1.4699707 C29.03037109 1.1399707 30.68037109 0.8099707 32.38037109 0.4699707 C32.38037109 4.0999707 32.38037109 7.7299707 32.38037109 11.4699707 C33.70037109 11.7999707 35.02037109 12.1299707 36.38037109 12.4699707 C36.05037109 14.1199707 35.72037109 15.7699707 35.38037109 17.4699707 C34.22279297 17.38618164 33.06521484 17.30239258 31.87255859 17.21606445 C30.33352044 17.11283628 28.7944565 17.00999202 27.25537109 16.9074707 C26.49482422 16.85139648 25.73427734 16.79532227 24.95068359 16.73754883 C20.56174328 16.45378114 16.72718665 16.63480342 12.38037109 17.4699707 C11.04055623 17.16372731 9.70525222 16.83545515 8.38037109 16.4699707 C7.39037109 16.7999707 6.40037109 17.1299707 5.38037109 17.4699707 C3.81918682 17.53737935 2.25534589 17.55511527 0.69287109 17.5324707 C-0.51949219 17.51893555 -0.51949219 17.51893555 -1.75634766 17.50512695 C-2.37123047 17.49352539 -2.98611328 17.48192383 -3.61962891 17.4699707 C-4.27962891 16.1499707 -4.93962891 14.8299707 -5.61962891 13.4699707 C-4.29962891 12.8099707 -2.97962891 12.1499707 -1.61962891 11.4699707 C-2.60962891 10.8099707 -3.59962891 10.1499707 -4.61962891 9.4699707 C-5.49462891 7.0949707 -5.49462891 7.0949707 -5.61962891 4.4699707 C-4.0634297 1.53744293 -3.32018898 0.59565366 0 0 Z M13.38037109 3.4699707 C12.72037109 4.1299707 12.06037109 4.7899707 11.38037109 5.4699707 C11.61901551 10.50502122 11.61901551 10.50502122 14.38037109 14.4699707 C14.38037109 10.8399707 14.38037109 7.2099707 14.38037109 3.4699707 C14.05037109 3.4699707 13.72037109 3.4699707 13.38037109 3.4699707 Z M18.38037109 4.4699707 C18.38037109 7.7699707 18.38037109 11.0699707 18.38037109 14.4699707 C18.71037109 14.4699707 19.04037109 14.4699707 19.38037109 14.4699707 C19.38037109 11.1699707 19.38037109 7.8699707 19.38037109 4.4699707 C19.05037109 4.4699707 18.72037109 4.4699707 18.38037109 4.4699707 Z M0.38037109 5.4699707 C1.37037109 6.4599707 2.36037109 7.4499707 3.38037109 8.4699707 C3.38037109 7.4799707 3.38037109 6.4899707 3.38037109 5.4699707 C2.39037109 5.4699707 1.40037109 5.4699707 0.38037109 5.4699707 Z " fill="#171717" transform="translate(456.61962890625,703.530029296875)"/>
<path d="M0 0 C0.99457424 -0.00218016 0.99457424 -0.00218016 2.0092409 -0.00440437 C4.25903729 -0.00809017 6.50876701 -0.00456598 8.75856304 -0.0011425 C10.3770168 -0.00229336 11.9954703 -0.00388064 13.61392325 -0.00586975 C18.08403852 -0.01006914 22.55413262 -0.00796951 27.024248 -0.00488353 C31.83803669 -0.00263162 36.6518216 -0.00610832 41.46560955 -0.00886345 C50.91242947 -0.01332513 60.35924148 -0.01234213 69.80606172 -0.00945081 C77.49601651 -0.00719472 85.18596908 -0.00688516 92.87592411 -0.00797462 C93.96952279 -0.00812786 95.06312147 -0.00828109 96.18985951 -0.00843897 C98.4116665 -0.0087587 100.63347349 -0.00908291 102.85528048 -0.00941156 C123.73117249 -0.01226843 144.60706013 -0.00897797 165.48295143 -0.00361119 C183.34896867 0.00084017 201.2149794 0.00009515 219.08099651 -0.00452995 C239.83905812 -0.00990125 260.59711585 -0.01197596 281.35517806 -0.00891769 C283.5771813 -0.00859917 285.79918454 -0.00828479 288.02118778 -0.00797462 C289.11430463 -0.00782035 290.20742148 -0.00766607 291.33366308 -0.00750712 C298.98991337 -0.00664835 306.64616118 -0.00809136 314.30241108 -0.01045418 C323.67026066 -0.01328156 333.03810188 -0.01245344 342.40595052 -0.00717343 C347.17488341 -0.004573 351.94380244 -0.00346778 356.71273518 -0.00682259 C377.41843953 -0.02023311 398.06783226 0.16974442 418.75506878 1.12584114 C418.75506878 1.45584114 418.75506878 1.78584114 418.75506878 2.12584114 C278.83506878 2.12584114 138.91506878 2.12584114 -5.24493122 2.12584114 C-5.24493122 2.78584114 -5.24493122 3.44584114 -5.24493122 4.12584114 C1.02506878 4.12584114 7.29506878 4.12584114 13.75506878 4.12584114 C11.75506878 6.12584114 11.75506878 6.12584114 9.87567425 6.35289192 C9.13204632 6.34241829 8.38841839 6.33194466 7.62225628 6.32115364 C6.81659222 6.31470833 6.01092815 6.30826302 5.18085003 6.30162239 C4.33909222 6.28486458 3.4973344 6.26810677 2.63006878 6.25084114 C1.3558305 6.23730598 1.3558305 6.23730598 0.05585003 6.22349739 C-2.04453006 6.19989761 -4.14476566 6.16402597 -6.24493122 6.12584114 C-6.62711889 4.46969457 -6.95888224 2.8012709 -7.24493122 1.12584114 C-5.40869132 -0.71039876 -2.46078478 0.0003356 0 0 Z " fill="#131313" transform="translate(359.2449312210083,724.8741588592529)"/>
<path d="M0 0 C0.70189453 0.01353516 1.40378906 0.02707031 2.12695312 0.04101562 C3.85579829 0.07629818 5.58424765 0.13010417 7.3125 0.1875 C7.9725 1.5075 8.6325 2.8275 9.3125 4.1875 C9.9725 2.8675 10.6325 1.5475 11.3125 0.1875 C13.12492052 0.16062721 14.93745233 0.14116285 16.75 0.125 C17.75933594 0.11339844 18.76867187 0.10179687 19.80859375 0.08984375 C22.3125 0.1875 22.3125 0.1875 23.3125 1.1875 C23.38476502 3.04037502 23.3963122 4.89583878 23.375 6.75 C23.36597656 7.76191406 23.35695313 8.77382813 23.34765625 9.81640625 C23.33605469 10.59886719 23.32445312 11.38132812 23.3125 12.1875 C24.9625 12.1875 26.6125 12.1875 28.3125 12.1875 C27.9825 13.8375 27.6525 15.4875 27.3125 17.1875 C25.0025 16.8575 22.6925 16.5275 20.3125 16.1875 C19.9825 12.2275 19.6525 8.2675 19.3125 4.1875 C19.3125 8.1475 19.3125 12.1075 19.3125 16.1875 C17.9925 16.5175 16.6725 16.8475 15.3125 17.1875 C14.9825 14.2175 14.6525 11.2475 14.3125 8.1875 C12.81846946 11.17556107 11.51939255 14.08406201 10.3125 17.1875 C8.9925 16.8575 7.6725 16.5275 6.3125 16.1875 C5.6525 13.8775 4.9925 11.5675 4.3125 9.1875 C3.9825 11.4975 3.6525 13.8075 3.3125 16.1875 C-0.25221391 17.37573797 -2.9433336 17.45024852 -6.6875 17.1875 C-8.8828125 16.015625 -8.8828125 16.015625 -10.6875 14.1875 C-11.18359375 11.59375 -11.18359375 11.59375 -11.125 8.6875 C-11.12371094 7.7284375 -11.12242187 6.769375 -11.12109375 5.78125 C-10.6875 3.1875 -10.6875 3.1875 -9.640625 1.35546875 C-6.58296502 -0.47301192 -3.44762351 -0.12554371 0 0 Z M-1.6875 3.1875 C-4.21113988 3.81283375 -4.21113988 3.81283375 -6.6875 5.1875 C-7.67827298 7.64036596 -7.67827298 7.64036596 -7.6875 10.1875 C-7.3575 10.8475 -7.0275 11.5075 -6.6875 12.1875 C-4.3734378 12.91825648 -2.03921131 13.58888258 0.3125 14.1875 C0.35375 12.929375 0.395 11.67125 0.4375 10.375 C0.47230469 9.31345703 0.47230469 9.31345703 0.5078125 8.23046875 C0.44504462 5.87390281 0.44504462 5.87390281 -1.6875 3.1875 Z " fill="#121212" transform="translate(733.6875,703.8125)"/>
<path d="M0 0 C3.5625 0.1875 3.5625 0.1875 5.5625 2.1875 C6.5525 1.5275 7.5425 0.8675 8.5625 0.1875 C11.125 -0.0625 11.125 -0.0625 13.5625 0.1875 C14.2225 0.8475 14.8825 1.5075 15.5625 2.1875 C16.2225 1.5275 16.8825 0.8675 17.5625 0.1875 C22.70410234 -0.35947897 22.70410234 -0.35947897 25.2421875 1.2578125 C27.27390478 4.22724544 26.84742255 6.8353141 26.75 10.375 C26.72292969 11.64730469 26.69585938 12.91960938 26.66796875 14.23046875 C26.63316406 15.20628906 26.59835937 16.18210937 26.5625 17.1875 C25.2425 16.8575 23.9225 16.5275 22.5625 16.1875 C22.2325 14.8675 21.9025 13.5475 21.5625 12.1875 C20.9025 13.8375 20.2425 15.4875 19.5625 17.1875 C18.5725 16.8575 17.5825 16.5275 16.5625 16.1875 C16.2325 15.5275 15.9025 14.8675 15.5625 14.1875 C15.005625 14.703125 14.44875 15.21875 13.875 15.75 C11.5625 17.1875 11.5625 17.1875 8.9375 17.1875 C6.5625 16.1875 6.5625 16.1875 5.25 13.625 C4.9096875 12.4184375 4.9096875 12.4184375 4.5625 11.1875 C3.2425 11.1875 1.9225 11.1875 0.5625 11.1875 C0.5625 12.8375 0.5625 14.4875 0.5625 16.1875 C-1.375 16.75 -1.375 16.75 -3.4375 17.1875 C-5.19309942 15.43190058 -4.56971919 13.15167558 -4.57421875 10.81640625 C-4.57035156 10.11386719 -4.56648437 9.41132812 -4.5625 8.6875 C-4.56636719 7.98496094 -4.57023438 7.28242187 -4.57421875 6.55859375 C-4.56206123 0.2488397 -4.56206123 0.2488397 0 0 Z M9.5625 4.1875 C8.54709888 8.28973585 8.54709888 8.28973585 9.5625 12.1875 C10.5525 12.1875 11.5425 12.1875 12.5625 12.1875 C12.5625 9.8775 12.5625 7.5675 12.5625 5.1875 C11.5725 4.8575 10.5825 4.5275 9.5625 4.1875 Z " fill="#101010" transform="translate(581.4375,703.8125)"/>
<path d="M0 0 C1.08946678 -0.00855011 1.08946678 -0.00855011 2.20094299 -0.01727295 C3.74014829 -0.026735 5.27937395 -0.0332617 6.81860352 -0.03710938 C9.17825486 -0.04682087 11.53703749 -0.07783357 13.89648438 -0.109375 C15.38931772 -0.1159042 16.88215732 -0.121155 18.375 -0.125 C19.08337509 -0.1373468 19.79175018 -0.1496936 20.52159119 -0.16241455 C22.51342773 -0.15332031 22.51342773 -0.15332031 25.75390625 0.203125 C27.75390625 3.203125 27.75390625 3.203125 27.75390625 7.203125 C26.10390625 7.203125 24.45390625 7.203125 22.75390625 7.203125 C22.75390625 6.543125 22.75390625 5.883125 22.75390625 5.203125 C22.09390625 5.203125 21.43390625 5.203125 20.75390625 5.203125 C20.42390625 5.863125 20.09390625 6.523125 19.75390625 7.203125 C19.75390625 6.213125 19.75390625 5.223125 19.75390625 4.203125 C21.40390625 4.203125 23.05390625 4.203125 24.75390625 4.203125 C24.25890625 3.213125 24.25890625 3.213125 23.75390625 2.203125 C20.78390625 3.193125 17.81390625 4.183125 14.75390625 5.203125 C14.75390625 8.833125 14.75390625 12.463125 14.75390625 16.203125 C13.43390625 16.533125 12.11390625 16.863125 10.75390625 17.203125 C9.79320191 14.32101198 9.64808742 12.50462456 9.69140625 9.515625 C9.70042969 8.70738281 9.70945312 7.89914062 9.71875 7.06640625 C9.73035156 6.45152344 9.74195313 5.83664062 9.75390625 5.203125 C9.09390625 4.873125 8.43390625 4.543125 7.75390625 4.203125 C7.75390625 8.163125 7.75390625 12.123125 7.75390625 16.203125 C6.43390625 16.533125 5.11390625 16.863125 3.75390625 17.203125 C3.09390625 15.883125 2.43390625 14.563125 1.75390625 13.203125 C1.09390625 14.523125 0.43390625 15.843125 -0.24609375 17.203125 C-2.5790415 17.24554223 -4.91311942 17.24405437 -7.24609375 17.203125 C-9.00169317 15.44752558 -8.37831294 13.16730058 -8.3828125 10.83203125 C-8.37894531 10.12949219 -8.37507813 9.42695312 -8.37109375 8.703125 C-8.37496094 8.00058594 -8.37882812 7.29804687 -8.3828125 6.57421875 C-8.36884487 -0.67498318 -6.57203994 0.03931643 0 0 Z M-4.24609375 4.203125 C-4.24609375 7.173125 -4.24609375 10.143125 -4.24609375 13.203125 C-3.91609375 13.203125 -3.58609375 13.203125 -3.24609375 13.203125 C-3.24609375 10.233125 -3.24609375 7.263125 -3.24609375 4.203125 C-3.57609375 4.203125 -3.90609375 4.203125 -4.24609375 4.203125 Z " fill="#0B0B0B" transform="translate(361.24609375,703.796875)"/>
<path d="M0 0 C0.66 0 1.32 0 2 0 C2.09796875 0.72445312 2.1959375 1.44890625 2.296875 2.1953125 C3.43254554 9.53800994 5.02972157 14.02972157 10.375 19.375 C16.6334758 22.18052363 24.03302675 22.28431509 30.58203125 20.1640625 C33.55746662 18.69566583 36.24210582 16.83859612 39 15 C38.72524783 18.29702607 38.27233527 19.71941215 35.9375 22.125 C28.52033835 26.8593585 22.69131942 27.65486891 14 26 C8.57942271 24.46416977 4.95664191 21.88054211 1.3828125 17.6015625 C-1.32908717 12.49951396 -1.24649019 6.6769771 -1 1 C-0.67 0.67 -0.34 0.34 0 0 Z " fill="#050505" transform="translate(353,568)"/>
<path d="M0 0 C2.33944736 0.28730055 4.6739143 0.61936779 7 1 C7.33 2.65 7.66 4.3 8 6 C8.33 4.35 8.66 2.7 9 1 C9.99 1 10.98 1 12 1 C12.99 3.31 13.98 5.62 15 8 C15.66 8 16.32 8 17 8 C17 10.31 17 12.62 17 15 C16.34 15 15.68 15 15 15 C14.34 14.34 13.68 13.68 13 13 C12.34 14.32 11.68 15.64 11 17 C9.18757948 17.02687279 7.37504767 17.04633715 5.5625 17.0625 C4.55316406 17.07410156 3.54382813 17.08570313 2.50390625 17.09765625 C0 17 0 17 -1 16 C-1.09975032 13.48863896 -1.13882183 11.01096585 -1.125 8.5 C-1.12886719 7.79746094 -1.13273438 7.09492187 -1.13671875 6.37109375 C-1.12661378 1.12661378 -1.12661378 1.12661378 0 0 Z M7 9 C5.68 9.33 4.36 9.66 3 10 C3 10.66 3 11.32 3 12 C5.475 12.495 5.475 12.495 8 13 C7.67 11.68 7.34 10.36 7 9 Z " fill="#0E0E0E" transform="translate(766,704)"/>
<path d="M0 0 C0.66 0.99 1.32 1.98 2 3 C0.68 3 -0.64 3 -2 3 C-2 3.66 -2 4.32 -2 5 C-0.02 5 1.96 5 4 5 C4.20625 4.360625 4.4125 3.72125 4.625 3.0625 C6 1 6 1 9.125 0.25 C10.07375 0.1675 11.0225 0.085 12 0 C11.34 1.32 10.68 2.64 10 4 C9.34 4 8.68 4 8 4 C7.67 6.31 7.34 8.62 7 11 C8.65 11 10.3 11 12 11 C12 12.65 12 14.3 12 16 C10.88625 15.835 9.7725 15.67 8.625 15.5 C4.20513777 14.889069 4.20513777 14.889069 0 16 C-1.66621616 16.03874921 -3.33394172 16.0450286 -5 16 C-5.19601608 14.25093341 -5.38147403 12.50068154 -5.5625 10.75 C-5.66691406 9.77546875 -5.77132812 8.8009375 -5.87890625 7.796875 C-5.98974468 5.2368648 -5.77738092 3.41851841 -5 1 C-3.35 0.67 -1.7 0.34 0 0 Z M-2 9 C-2 9.66 -2 10.32 -2 11 C-0.68 11 0.64 11 2 11 C2 10.34 2 9.68 2 9 C0.68 9 -0.64 9 -2 9 Z " fill="#0B0B0B" transform="translate(674,705)"/>
<path d="M0 0 C3.0625 0.1875 3.0625 0.1875 5.0625 2.1875 C5.4765625 4.7890625 5.4765625 4.7890625 5.6875 7.8125 C5.76226563 8.81539062 5.83703125 9.81828125 5.9140625 10.8515625 C5.98753906 12.00785156 5.98753906 12.00785156 6.0625 13.1875 C7.0525 10.5475 8.0425 7.9075 9.0625 5.1875 C10.0525 6.5075 11.0425 7.8275 12.0625 9.1875 C12.0625 7.5375 12.0625 5.8875 12.0625 4.1875 C11.4025 4.1875 10.7425 4.1875 10.0625 4.1875 C10.0625 3.5275 10.0625 2.8675 10.0625 2.1875 C11.0525 1.8575 12.0425 1.5275 13.0625 1.1875 C14.0525 5.8075 15.0425 10.4275 16.0625 15.1875 C14.4125 14.5275 12.7625 13.8675 11.0625 13.1875 C10.7325 14.1775 10.4025 15.1675 10.0625 16.1875 C7.25 16.5 7.25 16.5 4.0625 16.1875 C2.3125 13.75 2.3125 13.75 1.0625 11.1875 C0.4025 10.8575 -0.2575 10.5275 -0.9375 10.1875 C-0.9375 11.8375 -0.9375 13.4875 -0.9375 15.1875 C-1.5975 15.1875 -2.2575 15.1875 -2.9375 15.1875 C-3.13140729 12.87552845 -3.31746367 10.5628971 -3.5 8.25 C-3.65662109 6.31833984 -3.65662109 6.31833984 -3.81640625 4.34765625 C-3.85636719 3.30480469 -3.89632812 2.26195312 -3.9375 1.1875 C-2.9375 0.1875 -2.9375 0.1875 0 0 Z " fill="#070707" transform="translate(542.9375,703.8125)"/>
<path d="M0 0 C2.64 0 5.28 0 8 0 C8.99 2.64 9.98 5.28 11 8 C11.33 6.02 11.66 4.04 12 2 C12.33 2 12.66 2 13 2 C13 6.29 13 10.58 13 15 C12.01 15.33 11.02 15.66 10 16 C9.67 15.01 9.34 14.02 9 13 C8.34 14.32 7.68 15.64 7 17 C6.01 16.67 5.02 16.34 4 16 C3.67 13.36 3.34 10.72 3 8 C3 10.64 3 13.28 3 16 C2.01 16.33 1.02 16.66 0 17 C0 11.39 0 5.78 0 0 Z " fill="#0B0B0B" transform="translate(798,704)"/>
<path d="M0 0 C0.625 1.875 0.625 1.875 1 4 C0.34 4.66 -0.32 5.32 -1 6 C-0.01 7.485 -0.01 7.485 1 9 C1.375 11.5 1.375 11.5 1 14 C-0.5703125 15.67578125 -0.5703125 15.67578125 -3 17 C-6.453125 17.07421875 -6.453125 17.07421875 -10.25 16.6875 C-11.51328125 16.56761719 -12.7765625 16.44773437 -14.078125 16.32421875 C-15.04234375 16.21722656 -16.0065625 16.11023438 -17 16 C-16.01 15.67 -15.02 15.34 -14 15 C-14 13.35 -14 11.7 -14 10 C-13.01 10.99 -12.02 11.98 -11 13 C-11 12.01 -11 11.02 -11 10 C-10.71372955 7.32643843 -10.34968449 4.66634425 -10 2 C-9.01 2.33 -8.02 2.66 -7 3 C-7 2.34 -7 1.68 -7 1 C-4.53721199 -0.231394 -2.7204945 -0.07159196 0 0 Z M-9 6 C-9 7.98 -9 9.96 -9 12 C-8.01 12.495 -8.01 12.495 -7 13 C-6.01 12.67 -5.02 12.34 -4 12 C-4 11.34 -4 10.68 -4 10 C-5.62626404 8.61767557 -7.2925002 7.28062485 -9 6 Z " fill="#0F0F0F" transform="translate(849,704)"/>
<path d="M0 0 C0.78375 0.04125 1.5675 0.0825 2.375 0.125 C2.705 2.105 3.035 4.085 3.375 6.125 C4.365 6.455 5.355 6.785 6.375 7.125 C6.045 10.425 5.715 13.725 5.375 17.125 C4.116875 17.16625 2.85875 17.2075 1.5625 17.25 C0.85480469 17.27320313 0.14710938 17.29640625 -0.58203125 17.3203125 C-2.625 17.125 -2.625 17.125 -5.625 15.125 C-5.51123383 12.99936897 -5.38364369 10.8744739 -5.25 8.75 C-5.18039062 7.56664062 -5.11078125 6.38328125 -5.0390625 5.1640625 C-4.51736216 1.33497886 -3.95895568 0.1885217 0 0 Z " fill="#121212" transform="translate(713.625,703.875)"/>
<path d="M0 0 C3.125 0.125 3.125 0.125 6.125 1.125 C6.455 0.795 6.785 0.465 7.125 0.125 C9.12458364 0.08419217 11.12545254 0.08245644 13.125 0.125 C13.125 0.455 13.125 0.785 13.125 1.125 C11.475 1.125 9.825 1.125 8.125 1.125 C8.14820313 1.73988281 8.17140625 2.35476563 8.1953125 2.98828125 C8.22238281 4.20064453 8.22238281 4.20064453 8.25 5.4375 C8.27320313 6.23800781 8.29640625 7.03851562 8.3203125 7.86328125 C8.125 10.125 8.125 10.125 6.125 13.125 C6.125 11.805 6.125 10.485 6.125 9.125 C4.475 9.785 2.825 10.445 1.125 11.125 C1.125 12.775 1.125 14.425 1.125 16.125 C-0.8125 16.6875 -0.8125 16.6875 -2.875 17.125 C-4.63059942 15.36940058 -4.00721919 13.08917558 -4.01171875 10.75390625 C-4.00785156 10.05136719 -4.00398438 9.34882812 -4 8.625 C-4.00386719 7.92246094 -4.00773437 7.21992187 -4.01171875 6.49609375 C-3.99953725 0.17389292 -3.99953725 0.17389292 0 0 Z " fill="#121212" transform="translate(499.875,703.875)"/>
<path d="M0 0 C1 2 2 4 3 6 C3.33 4.35 3.66 2.7 4 1 C5.32 1.33 6.64 1.66 8 2 C7.34 2 6.68 2 6 2 C6 5.63 6 9.26 6 13 C6.66 13 7.32 13 8 13 C7.67 13.99 7.34 14.98 7 16 C5.02090602 16.02686553 3.04171029 16.04633375 1.0625 16.0625 C-0.03964844 16.07410156 -1.14179688 16.08570313 -2.27734375 16.09765625 C-5 16 -5 16 -6 15 C-6.09908783 13.21059028 -6.12970379 11.41714492 -6.125 9.625 C-6.12757813 8.64789062 -6.13015625 7.67078125 -6.1328125 6.6640625 C-6 4 -6 4 -5 1 C-3.35 0.67 -1.7 0.34 0 0 Z M2 8 C0.68 8.33 -0.64 8.66 -2 9 C-2 9.66 -2 10.32 -2 11 C0.475 11.495 0.475 11.495 3 12 C2.67 10.68 2.34 9.36 2 8 Z " fill="#0A0A0A" transform="translate(434,705)"/>
<path d="M0 0 C1.81242052 -0.02687279 3.62495233 -0.04633715 5.4375 -0.0625 C6.44683594 -0.07410156 7.45617187 -0.08570313 8.49609375 -0.09765625 C11 0 11 0 12 1 C12.07226502 2.85287502 12.0838122 4.70833878 12.0625 6.5625 C12.05347656 7.57441406 12.04445313 8.58632813 12.03515625 9.62890625 C12.02355469 10.41136719 12.01195312 11.19382812 12 12 C13.65 12 15.3 12 17 12 C16.67 13.65 16.34 15.3 16 17 C13.69 16.67 11.38 16.34 9 16 C8.67 12.04 8.34 8.08 8 4 C8 7.96 8 11.92 8 16 C6.68 16.33 5.36 16.66 4 17 C3.67 14.03 3.34 11.06 3 8 C2.34 8 1.68 8 1 8 C1.33 5.69 1.66 3.38 2 1 C1.34 0.67 0.68 0.34 0 0 Z " fill="#1A1A1A" transform="translate(745,704)"/>
<path d="M0 0 C2.31 0.33 4.62 0.66 7 1 C6.98839844 1.59167969 6.97679687 2.18335938 6.96484375 2.79296875 C6.91677614 7.00231785 6.93993117 10.8922333 8 15 C7.34 15 6.68 15 6 15 C5.34 13.68 4.68 12.36 4 11 C3.67 12.32 3.34 13.64 3 15 C-3.4 17.21538462 -3.4 17.21538462 -6.4375 16.125 C-6.953125 15.75375 -7.46875 15.3825 -8 15 C-8 13.35 -8 11.7 -8 10 C-7.67 10.99 -7.34 11.98 -7 13 C-5.02 13 -3.04 13 -1 13 C-1.01160156 12.22914063 -1.02320313 11.45828125 -1.03515625 10.6640625 C-1.04869141 9.15972656 -1.04869141 9.15972656 -1.0625 7.625 C-1.07410156 6.62726562 -1.08570313 5.62953125 -1.09765625 4.6015625 C-1 2 -1 2 0 0 Z " fill="#070707" transform="translate(832,704)"/>
<path d="M0 0 C1.76923828 0.01353516 1.76923828 0.01353516 3.57421875 0.02734375 C4.47785156 0.03894531 5.38148438 0.05054688 6.3125 0.0625 C5.9825 0.7225 5.6525 1.3825 5.3125 2.0625 C4.62542969 2.03929687 3.93835938 2.01609375 3.23046875 1.9921875 C2.32941406 1.97414063 1.42835938 1.95609375 0.5 1.9375 C-0.39332031 1.91429687 -1.28664063 1.89109375 -2.20703125 1.8671875 C-4.94152714 1.87964173 -4.94152714 1.87964173 -7.6875 4.0625 C-7.6875 4.7225 -7.6875 5.3825 -7.6875 6.0625 C-8.574375 6.578125 -9.46125 7.09375 -10.375 7.625 C-14.17600109 9.97928436 -15.67886593 13.20491527 -17.609375 17.13671875 C-18.6875 19.0625 -18.6875 19.0625 -20.6875 20.0625 C-20.6875 23.6925 -20.6875 27.3225 -20.6875 31.0625 C-23.29595923 28.45404077 -23.04530384 27.2003953 -23.125 23.5625 C-22.99331978 17.1024233 -21.55265314 12.26843593 -17.6875 7.0625 C-12.11542459 1.7397587 -7.72848335 -0.07651964 0 0 Z " fill="#111111" transform="translate(373.6875,548.9375)"/>
<path d="M0 0 C0.99 0 1.98 0 3 0 C3.66 1.32 4.32 2.64 5 4 C5.33 2.68 5.66 1.36 6 0 C6.99 0 7.98 0 9 0 C9 0.66 9 1.32 9 2 C9.66 2.33 10.32 2.66 11 3 C10.67 6.96 10.34 10.92 10 15 C8.68 15.33 7.36 15.66 6 16 C5.01 13.03 4.02 10.06 3 7 C2.67 9.31 2.34 11.62 2 14 C1.34 14 0.68 14 0 14 C0 9.38 0 4.76 0 0 Z " fill="#171717" transform="translate(359,705)"/>
<path d="M0 0 C1.32 0.33 2.64 0.66 4 1 C4 6.28 4 11.56 4 17 C3.01 16.67 2.02 16.34 1 16 C1 13.36 1 10.72 1 8 C0.01 8.495 0.01 8.495 -1 9 C-1.66 8.67 -2.32 8.34 -3 8 C-3.33 8.99 -3.66 9.98 -4 11 C-4.33 10.01 -4.66 9.02 -5 8 C-5.33 10.31 -5.66 12.62 -6 15 C-6.66 15 -7.32 15 -8 15 C-8.02705729 13.22925083 -8.04642195 11.45838289 -8.0625 9.6875 C-8.07410156 8.70136719 -8.08570313 7.71523438 -8.09765625 6.69921875 C-8 4 -8 4 -7 1 C-5.68 1 -4.36 1 -3 1 C-2.67 2.32 -2.34 3.64 -2 5 C-1.34 3.35 -0.68 1.7 0 0 Z " fill="#0C0C0C" transform="translate(569,704)"/>
<path d="M0 0 C1.98 0 3.96 0 6 0 C8 2 8 2 8.23046875 4.75 C8.20919922 6.35875 8.20919922 6.35875 8.1875 8 C8.17783203 9.60875 8.17783203 9.60875 8.16796875 11.25 C8 14 8 14 7 16 C4.69 15.67 2.38 15.34 0 15 C0 10.05 0 5.1 0 0 Z M3 4 C4 6 4 6 4 6 Z " fill="#090909" transform="translate(400,704)"/>
<path d="M0 0 C1.134375 0.020625 2.26875 0.04125 3.4375 0.0625 C3.4375 1.3825 3.4375 2.7025 3.4375 4.0625 C2.1175 4.0625 0.7975 4.0625 -0.5625 4.0625 C-0.5625 5.3825 -0.5625 6.7025 -0.5625 8.0625 C0.7575 8.0625 2.0775 8.0625 3.4375 8.0625 C3.1075 9.0525 2.7775 10.0425 2.4375 11.0625 C1.7775 11.0625 1.1175 11.0625 0.4375 11.0625 C0.4375 12.7125 0.4375 14.3625 0.4375 16.0625 C-1.5 16.625 -1.5 16.625 -3.5625 17.0625 C-5.31809942 15.30690058 -4.69471919 13.02667558 -4.69921875 10.69140625 C-4.69535156 9.98886719 -4.69148437 9.28632812 -4.6875 8.5625 C-4.69136719 7.85996094 -4.69523438 7.15742187 -4.69921875 6.43359375 C-4.68698105 0.08222774 -4.68698105 0.08222774 0 0 Z " fill="#1A1A1A" transform="translate(581.5625,703.9375)"/>
<path d="M0 0 C2.375 -0.1875 2.375 -0.1875 5 0 C7 3 7 3 6.5 6.3125 C5.96406595 10.26501365 6.49265781 12.36464531 8 16 C5.66705225 16.04241723 3.33297433 16.04092937 1 16 C0 15 0 15 -0.09765625 11.62109375 C-0.09098369 10.22652923 -0.07902532 8.83198257 -0.0625 7.4375 C-0.05798828 6.72658203 -0.05347656 6.01566406 -0.04882812 5.28320312 C-0.03700864 3.52209987 -0.01907263 1.76103964 0 0 Z M3 4 C4 6 4 6 4 6 Z " fill="#0A0A0A" transform="translate(624,704)"/>
<path d="M0 0 C0.66 0 1.32 0 2 0 C3.20568053 4.67201205 3.09382426 9.21496292 3 14 C-1.32344787 15.44114929 -5.19337839 15.78750173 -9.4375 13.9375 C-11.76643994 11.04961448 -11.27050795 8.58423038 -11 5 C-10.34 4.67 -9.68 4.34 -9 4 C-8.34 5.98 -7.68 7.96 -7 10 C-5.824375 10.2165625 -5.824375 10.2165625 -4.625 10.4375 C-2 11 -2 11 0 12 C-0.08378906 11.38511719 -0.16757812 10.77023437 -0.25390625 10.13671875 C-0.35574219 9.32847656 -0.45757813 8.52023437 -0.5625 7.6875 C-0.66691406 6.88699219 -0.77132812 6.08648438 -0.87890625 5.26171875 C-1 3 -1 3 0 0 Z " fill="#0A0A0A" transform="translate(734,706)"/>
<path d="M0 0 C1.98 0 3.96 0 6 0 C5.979375 0.78375 5.95875 1.5675 5.9375 2.375 C5.81315937 4.98114961 5.81315937 4.98114961 7 7 C6.67 7.66 6.34 8.32 6 9 C4.68 9 3.36 9 2 9 C2 9.66 2 10.32 2 11 C3.32 11 4.64 11 6 11 C6 12.32 6 13.64 6 15 C3.69 15 1.38 15 -1 15 C-1.02693575 12.87506859 -1.04636628 10.75004088 -1.0625 8.625 C-1.07410156 7.44164062 -1.08570313 6.25828125 -1.09765625 5.0390625 C-1 2 -1 2 0 0 Z " fill="#090909" transform="translate(815,705)"/>
<path d="M0 0 C0.66 0 1.32 0 2 0 C3.09506492 3.28519475 3.09960608 5.73663415 3.0625 9.1875 C3.05347656 10.27417969 3.04445313 11.36085938 3.03515625 12.48046875 C3.02355469 13.31191406 3.01195312 14.14335938 3 15 C2.01 15.33 1.02 15.66 0 16 C0 13.69 0 11.38 0 9 C-1.65 8.67 -3.3 8.34 -5 8 C-5 9.98 -5 11.96 -5 14 C-5.66 14 -6.32 14 -7 14 C-8.28571429 5.57142857 -8.28571429 5.57142857 -7 1 C-6.34 1 -5.68 1 -5 1 C-5 2.65 -5 4.3 -5 6 C-3.35 6 -1.7 6 0 6 C0 4.02 0 2.04 0 0 Z " fill="#080808" transform="translate(650,705)"/>
<path d="M0 0 C0.78375 0.04125 1.5675 0.0825 2.375 0.125 C1.385 1.61 1.385 1.61 0.375 3.125 C-0.615 2.795 -1.605 2.465 -2.625 2.125 C-1.57625002 4.74687494 -0.97568687 5.91871361 1.5 7.375 C2.11875 7.6225 2.7375 7.87 3.375 8.125 C3.625 10.4375 3.625 10.4375 3.375 13.125 C1.6875 15 1.6875 15 -0.625 16.125 C-3.375 15.8125 -3.375 15.8125 -5.625 15.125 C-4.75 10.25 -4.75 10.25 -3.625 9.125 C-3.955 8.795 -4.285 8.465 -4.625 8.125 C-4.8125 5.1875 -4.8125 5.1875 -4.625 2.125 C-2.625 0.125 -2.625 0.125 0 0 Z " fill="#0F0F0F" transform="translate(701.625,704.875)"/>
<path d="M0 0 C1.37376679 0.00398964 2.74753489 0.01873698 4.12109375 0.04296875 C4.81912109 0.04361328 5.51714844 0.04425781 6.23632812 0.04492188 C11.41828217 0.09015717 11.41828217 0.09015717 12.55859375 1.23046875 C12.59952312 3.56344308 12.60101098 5.897521 12.55859375 8.23046875 C11.09796525 5.58307959 10.55859375 4.33598541 10.55859375 1.23046875 C9.89859375 1.23046875 9.23859375 1.23046875 8.55859375 1.23046875 C8.22859375 3.21046875 7.89859375 5.19046875 7.55859375 7.23046875 C7.22859375 7.23046875 6.89859375 7.23046875 6.55859375 7.23046875 C6.55859375 5.58046875 6.55859375 3.93046875 6.55859375 2.23046875 C5.89859375 2.23046875 5.23859375 2.23046875 4.55859375 2.23046875 C4.22859375 3.22046875 3.89859375 4.21046875 3.55859375 5.23046875 C1.55859375 5.23046875 -0.44140625 5.23046875 -2.44140625 5.23046875 C-2.77140625 7.21046875 -3.10140625 9.19046875 -3.44140625 11.23046875 C-5.00390625 9.54296875 -5.00390625 9.54296875 -6.44140625 7.23046875 C-6.09425853 2.37040071 -5.10428079 0.34183038 0 0 Z " fill="#1E1E1E" transform="translate(729.44140625,703.76953125)"/>
<path d="M0 0 C6.75 -0.125 6.75 -0.125 9 1 C9 5.62 9 10.24 9 15 C9.99 15.33 10.98 15.66 12 16 C8.71023192 17.09658936 7.28696233 16.79953138 4 16 C4.66 15.67 5.32 15.34 6 15 C6 12.69 6 10.38 6 8 C3.53199953 9.15173355 1.95216435 10.04783565 0 12 C-0.33 11.67 -0.66 11.34 -1 11 C-0.8125 7.5625 -0.8125 7.5625 0 4 C2.0625 2.5625 2.0625 2.5625 4 2 C2.68 1.67 1.36 1.34 0 1 C0 0.67 0 0.34 0 0 Z M1 5 C1 5.33 1 5.66 1 6 C3.475 6.495 3.475 6.495 6 7 C6.33 9.31 6.66 11.62 7 14 C7.33 14 7.66 14 8 14 C8 11.03 8 8.06 8 5 C5.3333581 3.66667905 3.83319697 4.32897967 1 5 Z " fill="#161616" transform="translate(391,704)"/>
<path d="M0 0 C0.66 0 1.32 0 2 0 C1.79375 1.093125 1.5875 2.18625 1.375 3.3125 C0.59653475 7.0838401 0.59653475 7.0838401 3 10 C3.66 9.67 4.32 9.34 5 9 C5.65213292 6.97536745 5.65213292 6.97536745 6 5 C6.66 5 7.32 5 8 5 C8.25 10.625 8.25 10.625 6 14 C3.625 14.9375 3.625 14.9375 1 15 C-1.375 13.625 -1.375 13.625 -3 11 C-3.13195166 7.89913603 -2.82071453 4.99387413 -2 2 C-1.34 1.34 -0.68 0.68 0 0 Z " fill="#070707" transform="translate(519,706)"/>
<path d="M0 0 C0.66 0.99 1.32 1.98 2 3 C0.68 3 -0.64 3 -2 3 C-2 3.66 -2 4.32 -2 5 C-1.01 5.33 -0.02 5.66 1 6 C1.33 6.99 1.66 7.98 2 9 C0.68 9 -0.64 9 -2 9 C-2 9.66 -2 10.32 -2 11 C-0.68 11.33 0.64 11.66 2 12 C2 12.66 2 13.32 2 14 C-0.31 14.66 -2.62 15.32 -5 16 C-5.19601608 14.25093341 -5.38147403 12.50068154 -5.5625 10.75 C-5.66691406 9.77546875 -5.77132812 8.8009375 -5.87890625 7.796875 C-5.98974468 5.2368648 -5.77738092 3.41851841 -5 1 C-3.35 0.67 -1.7 0.34 0 0 Z " fill="#030303" transform="translate(674,705)"/>
<path d="M0 0 C2.625 -0.1875 2.625 -0.1875 5 0 C5 0.66 5 1.32 5 2 C4.01 2.33 3.02 2.66 2 3 C2 3.66 2 4.32 2 5 C3.32 5.66 4.64 6.32 6 7 C5.979375 7.94875 5.95875 8.8975 5.9375 9.875 C5.77448174 12.90666283 5.77448174 12.90666283 7 15 C4.69 15.33 2.38 15.66 0 16 C-0.66 14.68 -1.32 13.36 -2 12 C-0.68 11.34 0.64 10.68 2 10 C1.01 9.34 0.02 8.68 -1 8 C-1.8125 5.5625 -1.8125 5.5625 -2 3 C-1.34 2.01 -0.68 1.02 0 0 Z " fill="#0F0F0F" transform="translate(453,705)"/>
<path d="M0 0 C2.64 0 5.28 0 8 0 C8.33 0.66 8.66 1.32 9 2 C10.32 1.34 11.64 0.68 13 0 C14 1 14 1 14.09765625 4.37890625 C14.09098369 5.77347077 14.07902532 7.16801743 14.0625 8.5625 C14.05798828 9.27341797 14.05347656 9.98433594 14.04882812 10.71679688 C14.03700864 12.47790013 14.01907263 14.23896036 14 16 C12.68 16.33 11.36 16.66 10 17 C9.67 15.35 9.34 13.7 9 12 C9.33 12.99 9.66 13.98 10 15 C10.66 15 11.32 15 12 15 C11.60421045 12.15031523 11.24461015 10.32614687 9.5 8 C7.75538985 5.67385313 7.39578955 3.84968477 7 1 C6.01 1 5.02 1 4 1 C4 1.99 4 2.98 4 4 C3.34 4 2.68 4 2 4 C2 3.01 2 2.02 2 1 C1.34 0.67 0.68 0.34 0 0 Z " fill="#212121" transform="translate(771,704)"/>
<path d="M0 0 C3.75769109 0.42701035 5.23359791 1.5085091 7.75 4.3125 C8.0625 8.0625 8.0625 8.0625 7.75 11.3125 C7.09 10.9825 6.43 10.6525 5.75 10.3125 C5.75 9.3225 5.75 8.3325 5.75 7.3125 C5.09 7.3125 4.43 7.3125 3.75 7.3125 C3.42 8.9625 3.09 10.6125 2.75 12.3125 C2.42 12.3125 2.09 12.3125 1.75 12.3125 C1.605625 11.219375 1.46125 10.12625 1.3125 9 C0.86711896 5.38127013 0.86711896 5.38127013 -0.25 2.3125 C-3.2609362 4.3197908 -3.88016497 5.15134224 -5.25 8.3125 C-5.91 8.3125 -6.57 8.3125 -7.25 8.3125 C-7.25 6.3325 -7.25 4.3525 -7.25 2.3125 C-6.610625 2.168125 -5.97125 2.02375 -5.3125 1.875 C-2.97051103 1.23627574 -2.44556114 0.33966127 0 0 Z " fill="#1B1B1B" transform="translate(521.25,703.6875)"/>
<path d="M0 0 C1.32 0 2.64 0 4 0 C4 5.28 4 10.56 4 16 C2.68 16.33 1.36 16.66 0 17 C-1.75559942 15.24440058 -1.13221919 12.96417558 -1.13671875 10.62890625 C-1.13285156 9.92636719 -1.12898438 9.22382812 -1.125 8.5 C-1.12886719 7.79746094 -1.13273437 7.09492187 -1.13671875 6.37109375 C-1.12661378 1.12661378 -1.12661378 1.12661378 0 0 Z " fill="#0E0E0E" transform="translate(354,704)"/>
<path d="M0 0 C3.3 0 6.6 0 10 0 C9.01 0.495 9.01 0.495 8 1 C8.33 6.28 8.66 11.56 9 17 C7.35 16.01 5.7 15.02 4 14 C4.33 12.02 4.66 10.04 5 8 C2.525 7.01 2.525 7.01 0 6 C0.33 5.01 0.66 4.02 1 3 C1.99 3 2.98 3 4 3 C4 2.34 4 1.68 4 1 C2.68 0.67 1.36 0.34 0 0 Z M3 5 C3.99 5.99 4.98 6.98 6 8 C6 7.01 6 6.02 6 5 C5.01 5 4.02 5 3 5 Z " fill="#393939" transform="translate(454,704)"/>
<path d="M0 0 C0.99 0.33 1.98 0.66 3 1 C3 4.63 3 8.26 3 12 C4.65 12 6.3 12 8 12 C7.67 13.65 7.34 15.3 7 17 C4.69 16.67 2.38 16.34 0 16 C0 10.72 0 5.44 0 0 Z " fill="#161616" transform="translate(754,704)"/>
<path d="M0 0 C0.33 0.99 0.66 1.98 1 3 C0.67 3.33 0.34 3.66 0 4 C-0.23363881 5.84891946 -0.41303635 7.70488031 -0.5625 9.5625 C-0.64628906 10.57441406 -0.73007812 11.58632813 -0.81640625 12.62890625 C-0.87699219 13.41136719 -0.93757812 14.19382812 -1 15 C-2.32 15 -3.64 15 -5 15 C-5 11.37 -5 7.74 -5 4 C-5.66 4 -6.32 4 -7 4 C-7 3.01 -7 2.02 -7 1 C-3.535 0.505 -3.535 0.505 0 0 Z " fill="#090909" transform="translate(666,705)"/>
<path d="M0 0 C0.33 0 0.66 0 1 0 C1 1.65 1 3.3 1 5 C1.66 5 2.32 5 3 5 C3 5.66 3 6.32 3 7 C4.32 7 5.64 7 7 7 C7 5.02 7 3.04 7 1 C7.66 1 8.32 1 9 1 C9.4856661 8.40640809 9.4856661 8.40640809 7.3125 11.0625 C4.41283754 12.23803883 2.92735485 12.02853008 0 11 C-1.62651522 7.74696956 -1.11453156 4.60774398 -1 1 C-0.67 0.67 -0.34 0.34 0 0 Z " fill="#090909" transform="translate(588,709)"/>
<path d="M0 0 C1.69433918 3.0469629 2.49467112 5.82821466 3.125 9.25 C3.29257812 10.14203125 3.46015625 11.0340625 3.6328125 11.953125 C3.75398437 12.62859375 3.87515625 13.3040625 4 14 C1.525 13.01 1.525 13.01 -1 12 C-1.33 12.99 -1.66 13.98 -2 15 C-3.65 15 -5.3 15 -7 15 C-5.92289822 10.69159287 -4.96052484 7.36423277 -2 4 C-1.34 5.32 -0.68 6.64 0 8 C0 6.35 0 4.7 0 3 C-0.66 3 -1.32 3 -2 3 C-2 2.34 -2 1.68 -2 1 C-1.34 0.67 -0.68 0.34 0 0 Z " fill="#080808" transform="translate(555,705)"/>
<path d="M0 0 C0 3.63 0 7.26 0 11 C1.32 11.33 2.64 11.66 4 12 C3.67 13.65 3.34 15.3 3 17 C1.02 16.34 -0.96 15.68 -3 15 C-3 10.38 -3 5.76 -3 1 C-1 0 -1 0 0 0 Z " fill="#0D0D0D" transform="translate(489,704)"/>
<path d="M0 0 C4.62 0 9.24 0 14 0 C13.01 0.495 13.01 0.495 12 1 C12 1.66 12 2.32 12 3 C11.34 3 10.68 3 10 3 C10 2.34 10 1.68 10 1 C9.01 1 8.02 1 7 1 C6.67 2.65 6.34 4.3 6 6 C5.34 5.34 4.68 4.68 4 4 C4 3.01 4 2.02 4 1 C3.01 1 2.02 1 1 1 C1 5.62 1 10.24 1 15 C1.66 15 2.32 15 3 15 C3 12.03 3 9.06 3 6 C3.66 6.66 4.32 7.32 5 8 C4.96712417 10.72869407 4.43602229 13.2966618 4 16 C2.68 16 1.36 16 0 16 C0 10.72 0 5.44 0 0 Z " fill="#333333" transform="translate(358,704)"/>
<path d="M0 0 C0.33 0.99 0.66 1.98 1 3 C0.5359375 3.8353125 0.5359375 3.8353125 0.0625 4.6875 C-1.53065326 8.15495121 -1.12648259 11.2055224 -1 15 C-1.99 14.67 -2.98 14.34 -4 14 C-4 10.37 -4 6.74 -4 3 C-4.99 3 -5.98 3 -7 3 C-7 2.01 -7 1.02 -7 0 C-4.3333581 -1.33332095 -2.83319697 -0.67102033 0 0 Z " fill="#080808" transform="translate(426,705)"/>
<path d="M0 0 C1.03447266 0.00483398 1.03447266 0.00483398 2.08984375 0.00976562 C2.77949219 -0.00634766 3.46914063 -0.02246094 4.1796875 -0.0390625 C6.18359375 -0.04101562 6.18359375 -0.04101562 9.58984375 0.32226562 C11.58984375 3.32226562 11.58984375 3.32226562 11.58984375 7.32226562 C9.93984375 7.32226562 8.28984375 7.32226562 6.58984375 7.32226562 C6.58984375 6.66226563 6.58984375 6.00226562 6.58984375 5.32226562 C5.92984375 5.32226562 5.26984375 5.32226562 4.58984375 5.32226562 C4.25984375 5.98226562 3.92984375 6.64226563 3.58984375 7.32226562 C3.58984375 6.33226562 3.58984375 5.34226562 3.58984375 4.32226562 C5.23984375 4.32226562 6.88984375 4.32226562 8.58984375 4.32226562 C8.25984375 3.66226563 7.92984375 3.00226562 7.58984375 2.32226562 C4.94984375 2.98226562 2.30984375 3.64226563 -0.41015625 4.32226562 C-0.74015625 3.66226563 -1.07015625 3.00226562 -1.41015625 2.32226562 C-3.39015625 2.32226562 -5.37015625 2.32226562 -7.41015625 2.32226562 C-4.92726789 -0.16062273 -3.39829469 0.03643396 0 0 Z " fill="#181818" transform="translate(377.41015625,703.677734375)"/>
<path d="M0 0 C0.66 0.33 1.32 0.66 2 1 C1.34 2.65 0.68 4.3 0 6 C-0.33 6 -0.66 6 -1 6 C-1.08226668 9.04386724 -0.97608217 11.07175348 0 14 C0.66 14.33 1.32 14.66 2 15 C-1.96 15 -5.92 15 -10 15 C-9.01 14.67 -8.02 14.34 -7 14 C-7 12.35 -7 10.7 -7 9 C-6.01 9.99 -5.02 10.98 -4 12 C-4 11.01 -4 10.02 -4 9 C-3.71372955 6.32643843 -3.34968449 3.66634425 -3 1 C-2.01 1.33 -1.02 1.66 0 2 C0 1.34 0 0.68 0 0 Z " fill="#212121" transform="translate(842,705)"/>
<path d="M0 0 C0.66 0 1.32 0 2 0 C3.04976964 3.14930893 3.10131595 5.38814456 3.0625 8.6875 C3.05347656 9.68136719 3.04445313 10.67523437 3.03515625 11.69921875 C3.02355469 12.45847656 3.01195312 13.21773437 3 14 C2.01 14.495 2.01 14.495 1 15 C0.34 14.67 -0.32 14.34 -1 14 C-1.02705729 12.22925083 -1.04642195 10.45838289 -1.0625 8.6875 C-1.07410156 7.70136719 -1.08570313 6.71523438 -1.09765625 5.69921875 C-1 3 -1 3 0 0 Z " fill="#060606" transform="translate(655,706)"/>
<path d="M0 0 C6.93 0 13.86 0 21 0 C19.68 1.32 18.36 2.64 17 4 C16.67 3.34 16.34 2.68 16 2 C13.69 2 11.38 2 9 2 C8.67 2.99 8.34 3.98 8 5 C7.67 4.01 7.34 3.02 7 2 C6.34 2 5.68 2 5 2 C4.67 2.99 4.34 3.98 4 5 C3.34 4.67 2.68 4.34 2 4 C2 3.01 2 2.02 2 1 C1.34 0.67 0.68 0.34 0 0 Z " fill="#1A1A1A" transform="translate(650,704)"/>
<path d="M0 0 C0 2.97 0 5.94 0 9 C-7.75 9.125 -7.75 9.125 -10 8 C-10 6.02 -10 4.04 -10 2 C-9.34 3.32 -8.68 4.64 -8 6 C-7.01 6 -6.02 6 -5 6 C-5 5.01 -5 4.02 -5 3 C-2.55555556 0 -2.55555556 0 0 0 Z " fill="#0B0B0B" transform="translate(719,712)"/>
<path d="M0 0 C2.97 0.495 2.97 0.495 6 1 C5.67257812 1.54140625 5.34515625 2.0828125 5.0078125 2.640625 C3.78335233 5.50719067 3.80107854 7.6452987 3.875 10.75 C3.89304687 11.73484375 3.91109375 12.7196875 3.9296875 13.734375 C3.95289063 14.48203125 3.97609375 15.2296875 4 16 C2.68 16.33 1.36 16.66 0 17 C0 16.34 0 15.68 0 15 C0.66 15 1.32 15 2 15 C1.55282671 11.31085253 1.55282671 11.31085253 -0.625 8.4375 C-1.07875 7.963125 -1.5325 7.48875 -2 7 C-1.75 5 -1.75 5 -1 3 C-0.67 2.01 -0.34 1.02 0 0 Z " fill="#272727" transform="translate(809,704)"/>
<path d="M0 0 C2.875 -0.125 2.875 -0.125 6 0 C8 2 8 2 8.1953125 4.8203125 C8.16050781 6.45613281 8.16050781 6.45613281 8.125 8.125 C8.10695313 9.22070312 8.08890625 10.31640625 8.0703125 11.4453125 C8.04710937 12.28835938 8.02390625 13.13140625 8 14 C6.5393715 11.35261084 6 10.10551666 6 7 C4.68 7 3.36 7 2 7 C1.7834375 5.824375 1.7834375 5.824375 1.5625 4.625 C1.12201075 2.03578982 1.12201075 2.03578982 0 0 Z " fill="#181818" transform="translate(540,704)"/>
<path d="M0 0 C1.50433594 0.01353516 1.50433594 0.01353516 3.0390625 0.02734375 C3.80992187 0.03894531 4.58078125 0.05054688 5.375 0.0625 C5.375 2.0425 5.375 4.0225 5.375 6.0625 C6.035 6.0625 6.695 6.0625 7.375 6.0625 C7.375 4.4125 7.375 2.7625 7.375 1.0625 C7.705 1.0625 8.035 1.0625 8.375 1.0625 C8.375 3.0425 8.375 5.0225 8.375 7.0625 C6.725 7.0625 5.075 7.0625 3.375 7.0625 C3.375 5.4125 3.375 3.7625 3.375 2.0625 C2.715 2.0625 2.055 2.0625 1.375 2.0625 C1.375 2.7225 1.375 3.3825 1.375 4.0625 C0.715 4.0625 0.055 4.0625 -0.625 4.0625 C-0.625 3.0725 -0.625 2.0825 -0.625 1.0625 C-2.935 1.7225 -5.245 2.3825 -7.625 3.0625 C-7.625 2.4025 -7.625 1.7425 -7.625 1.0625 C-4.98041621 -0.25979189 -2.94738699 -0.03427194 0 0 Z " fill="#1B1B1B" transform="translate(641.625,703.9375)"/>
<path d="M0 0 C0.99 0 1.98 0 3 0 C3.99 3.3 4.98 6.6 6 10 C5.01 10.495 5.01 10.495 4 11 C3.67 9.68 3.34 8.36 3 7 C2.67 9.31 2.34 11.62 2 14 C1.34 14 0.68 14 0 14 C0 9.38 0 4.76 0 0 Z " fill="#070707" transform="translate(359,705)"/>
<path d="M0 0 C0.33 0.99 0.66 1.98 1 3 C-0.32 3 -1.64 3 -3 3 C-3 4.32 -3 5.64 -3 7 C-1.68 7 -0.36 7 1 7 C1 7.66 1 8.32 1 9 C-0.32 9 -1.64 9 -3 9 C-3 10.65 -3 12.3 -3 14 C-3.66 14 -4.32 14 -5 14 C-5 9.71 -5 5.42 -5 1 C-3.35 0.67 -1.7 0.34 0 0 Z " fill="#050505" transform="translate(584,705)"/>
<path d="M0 0 C1.2065625 0.0309375 1.2065625 0.0309375 2.4375 0.0625 C1.4475 1.5475 1.4475 1.5475 0.4375 3.0625 C-0.5525 2.7325 -1.5425 2.4025 -2.5625 2.0625 C-1.51375002 4.68437494 -0.91318687 5.85621361 1.5625 7.3125 C2.18125 7.56 2.8 7.8075 3.4375 8.0625 C3.4375 9.7125 3.4375 11.3625 3.4375 13.0625 C3.1075 12.4025 2.7775 11.7425 2.4375 11.0625 C1.4475 10.7325 0.4575 10.4025 -0.5625 10.0625 C-0.5625 9.4025 -0.5625 8.7425 -0.5625 8.0625 C-1.8825 7.4025 -3.2025 6.7425 -4.5625 6.0625 C-3.48963568 0.08511307 -3.48963568 0.08511307 0 0 Z " fill="#070707" transform="translate(701.5625,704.9375)"/>
<path d="M0 0 C0 0.33 0 0.66 0 1 C-1.65 1 -3.3 1 -5 1 C-4.97679687 1.61488281 -4.95359375 2.22976563 -4.9296875 2.86328125 C-4.91164063 3.67152344 -4.89359375 4.47976563 -4.875 5.3125 C-4.85179687 6.11300781 -4.82859375 6.91351562 -4.8046875 7.73828125 C-5 10 -5 10 -7 13 C-7 11.68 -7 10.36 -7 9 C-7.66 9 -8.32 9 -9 9 C-9.33 6.36 -9.66 3.72 -10 1 C-6.61981469 -0.04005702 -3.5219721 -0.08004482 0 0 Z " fill="#1E1E1E" transform="translate(513,704)"/>
<path d="M0 0 C0.66 0 1.32 0 2 0 C2.84681133 5.08086796 3.09038099 9.84828377 3 15 C2.01 15.33 1.02 15.66 0 16 C0 10.72 0 5.44 0 0 Z " fill="#050505" transform="translate(798,705)"/>
<path d="M0 0 C5.61 0 11.22 0 17 0 C18.04449911 3.13349732 17.93423645 3.98968256 17 7 C16.67 5.02 16.34 3.04 16 1 C13.55519921 1.18828772 13.55519921 1.18828772 11 2 C9.63979849 3.96758273 9.63979849 3.96758273 9 6 C8.34 5.34 7.68 4.68 7 4 C7 3.01 7 2.02 7 1 C6.401875 1.20625 5.80375 1.4125 5.1875 1.625 C3 2 3 2 0 0 Z " fill="#181818" transform="translate(814,704)"/>
<path d="M0 0 C-0.33 2.97 -0.66 5.94 -1 9 C-3.5 7.6875 -3.5 7.6875 -6 6 C-6 5.01 -6 4.02 -6 3 C-4.68 2.67 -3.36 2.34 -2 2 C-2.763125 2.165 -3.52625 2.33 -4.3125 2.5 C-7 3 -7 3 -10 3 C-10 2.34 -10 1.68 -10 1 C-5.8922935 -0.58706842 -4.40767604 -1.10191901 0 0 Z " fill="#1C1C1C" transform="translate(705,704)"/>
<path d="M0 0 C0.99 0.33 1.98 0.66 3 1 C2.34 1 1.68 1 1 1 C0.31292445 3.49064888 0 5.37886292 0 8 C-1.98 8 -3.96 8 -6 8 C-6.33 8.66 -6.66 9.32 -7 10 C-6.67 7.69 -6.34 5.38 -6 3 C-5.195625 2.690625 -4.39125 2.38125 -3.5625 2.0625 C-1.10919595 1.23664655 -1.10919595 1.23664655 0 0 Z " fill="#252525" transform="translate(795,705)"/>
<path d="M0 0 C1.95825873 -0.02694851 3.91662226 -0.04637218 5.875 -0.0625 C6.96554687 -0.07410156 8.05609375 -0.08570313 9.1796875 -0.09765625 C12 0 12 0 14 1 C14 2.98 14 4.96 14 7 C13.67 6.01 13.34 5.02 13 4 C12.34 4 11.68 4 11 4 C10.67 3.34 10.34 2.68 10 2 C8.35 2 6.7 2 5 2 C4.67 2.99 4.34 3.98 4 5 C3.71125 4.360625 3.4225 3.72125 3.125 3.0625 C2.17176549 0.84793921 2.17176549 0.84793921 0 0 Z " fill="#1D1D1D" transform="translate(424,704)"/>
<path d="M0 0 C3 0 3 0 5 1 C4.01 2.485 4.01 2.485 3 4 C2.60986284 5.9896995 2.26797351 7.99019869 2 10 C1.34 9.67 0.68 9.34 0 9 C0 8.34 0 7.68 0 7 C-1.32 7 -2.64 7 -4 7 C-4 5.68 -4 4.36 -4 3 C-2.68 3 -1.36 3 0 3 C0 2.01 0 1.02 0 0 Z " fill="#262626" transform="translate(585,705)"/>
<path d="M0 0 C0.66 0 1.32 0 2 0 C2 4.29 2 8.58 2 13 C1.01 12.67 0.02 12.34 -1 12 C-1.02698189 10.37509046 -1.04638757 8.75005367 -1.0625 7.125 C-1.07410156 6.22007812 -1.08570313 5.31515625 -1.09765625 4.3828125 C-1 2 -1 2 0 0 Z " fill="#0A0A0A" transform="translate(472,706)"/>
<path d="M0 0 C0.66 0 1.32 0 2 0 C2 3.96 2 7.92 2 12 C3.32 12 4.64 12 6 12 C6 12.66 6 13.32 6 14 C4.02 14 2.04 14 0 14 C0 9.38 0 4.76 0 0 Z " fill="#060606" transform="translate(477,705)"/>
<path d="M0 0 C0.66 0.33 1.32 0.66 2 1 C1.67 1.66 1.34 2.32 1 3 C1.66 3 2.32 3 3 3 C3.33 2.34 3.66 1.68 4 1 C3.46930939 4.82097239 2.50298434 7.06171403 0 10 C-0.33 9.34 -0.66 8.68 -1 8 C-1.99 8.99 -2.98 9.98 -4 11 C-4.66 10.67 -5.32 10.34 -6 10 C-5.38125 9.278125 -4.7625 8.55625 -4.125 7.8125 C-2.16333647 5.21618062 -1.04684 3.05328334 0 0 Z " fill="#0C0C0C" transform="translate(392,576)"/>
<path d="M0 0 C2.97 0 5.94 0 9 0 C8.34 2.97 7.68 5.94 7 9 C6.01 8.34 5.02 7.68 4 7 C4 6.34 4 5.68 4 5 C3.34 5 2.68 5 2 5 C2 3.68 2 2.36 2 1 C1.34 0.67 0.68 0.34 0 0 Z " fill="#3D3D3D" transform="translate(745,704)"/>
<path d="M0 0 C0.66 0 1.32 0 2 0 C2.33 5.28 2.66 10.56 3 16 C2.01 15.67 1.02 15.34 0 15 C0 10.05 0 5.1 0 0 Z " fill="#2D2D2D" transform="translate(598,705)"/>
<path d="M0 0 C2.475 0.99 2.475 0.99 5 2 C5 5.63 5 9.26 5 13 C4.01 13 3.02 13 2 13 C0.34081481 8.80323746 -0.09052433 6.36209734 1 2 C0.67 1.34 0.34 0.68 0 0 Z M2 7 C3 10 3 10 3 10 Z " fill="#181818" transform="translate(629,705)"/>
<path d="M0 0 C0 0.66 0 1.32 0 2 C0.66 2.33 1.32 2.66 2 3 C2 3.66 2 4.32 2 5 C1.38125 5.28875 0.7625 5.5775 0.125 5.875 C-2.13325765 6.93720042 -2.13325765 6.93720042 -4 9 C-4.33 8.67 -4.66 8.34 -5 8 C-4.6875 4.5 -4.6875 4.5 -4 1 C-2 0 -2 0 0 0 Z " fill="#262626" transform="translate(395,707)"/>
<path d="M0 0 C1.670625 0.061875 1.670625 0.061875 3.375 0.125 C1.70836999 2.84423843 0.98075772 3.97725421 -2.1875 4.75 C-2.991875 4.87375 -3.79625 4.9975 -4.625 5.125 C-5.285 5.785 -5.945 6.445 -6.625 7.125 C-5.84042384 2.15601765 -5.49387562 0.18944399 0 0 Z " fill="#111111" transform="translate(792.625,703.875)"/>
<path d="M0 0 C1.65 0 3.3 0 5 0 C5.33 1.98 5.66 3.96 6 6 C6.99 6.33 7.98 6.66 9 7 C8.01 7.33 7.02 7.66 6 8 C5.67 8.99 5.34 9.98 5 11 C2.90348525 7.54691689 2.90348525 7.54691689 3.375 4.875 C3.58125 4.25625 3.7875 3.6375 4 3 C4 2.34 4 1.68 4 1 C2.35 1.66 0.7 2.32 -1 3 C-0.67 2.01 -0.34 1.02 0 0 Z " fill="#252525" transform="translate(711,704)"/>
<path d="M0 0 C-0.33 1.32 -0.66 2.64 -1 4 C-2.32 4 -3.64 4 -5 4 C-5.33 6.31 -5.66 8.62 -6 11 C-6.66 10.67 -7.32 10.34 -8 10 C-7.65310493 4.62312634 -7.65310493 4.62312634 -7 2 C-4.47763955 -0.01788836 -3.24903049 0 0 0 Z " fill="#090909" transform="translate(641,705)"/>
<path d="M0 0 C1.23556641 0.01740234 1.23556641 0.01740234 2.49609375 0.03515625 C3.32238281 0.04417969 4.14867187 0.05320312 5 0.0625 C5.63808594 0.07410156 6.27617187 0.08570313 6.93359375 0.09765625 C5.94359375 0.59265625 5.94359375 0.59265625 4.93359375 1.09765625 C4.76859375 1.75765625 4.60359375 2.41765625 4.43359375 3.09765625 C4.26859375 3.75765625 4.10359375 4.41765625 3.93359375 5.09765625 C2.94359375 5.59265625 2.94359375 5.59265625 1.93359375 6.09765625 C1.60359375 4.44765625 1.27359375 2.79765625 0.93359375 1.09765625 C0.27359375 1.09765625 -0.38640625 1.09765625 -1.06640625 1.09765625 C-1.39640625 2.74765625 -1.72640625 4.39765625 -2.06640625 6.09765625 C-2.39640625 6.09765625 -2.72640625 6.09765625 -3.06640625 6.09765625 C-3.10912725 4.4315372 -3.10704457 2.7638274 -3.06640625 1.09765625 C-2.06640625 0.09765625 -2.06640625 0.09765625 0 0 Z " fill="#2B2B2B" transform="translate(414.06640625,703.90234375)"/>
<path d="M0 0 C1.65 0 3.3 0 5 0 C5.625 1.875 5.625 1.875 6 4 C5.34 4.66 4.68 5.32 4 6 C4 6.99 4 7.98 4 9 C2.68 8.01 1.36 7.02 0 6 C0.33 5.01 0.66 4.02 1 3 C1.66 3 2.32 3 3 3 C3.33 2.34 3.66 1.68 4 1 C2.68 0.67 1.36 0.34 0 0 Z " fill="#202020" transform="translate(844,704)"/>
<path d="M0 0 C2.31 0.33 4.62 0.66 7 1 C6.67 2.98 6.34 4.96 6 7 C5.01 7.33 4.02 7.66 3 8 C2.814375 6.576875 2.814375 6.576875 2.625 5.125 C2.28312823 1.91332809 2.28312823 1.91332809 0 0 Z " fill="#111111" transform="translate(832,704)"/>
<path d="M0 0 C0.66 0 1.32 0 2 0 C2 2.31 2 4.62 2 7 C-0.60582371 7.93065133 -1.64198224 8.14917407 -4.25 7.0625 C-4.8275 6.711875 -5.405 6.36125 -6 6 C-5.34 6 -4.68 6 -4 6 C-3.67 5.01 -3.34 4.02 -3 3 C-2.67 3.99 -2.34 4.98 -2 6 C-1.34 6 -0.68 6 0 6 C0 4.02 0 2.04 0 0 Z " fill="#171717" transform="translate(645,713)"/>
<path d="M0 0 C0.66 0 1.32 0 2 0 C2.66 0.66 3.32 1.32 4 2 C4.33 2 4.66 2 5 2 C5 4.31 5 6.62 5 9 C4.34 9 3.68 9 3 9 C0.78252188 6.69723426 0.03239994 5.47519908 -0.1875 2.25 C-0.125625 1.5075 -0.06375 0.765 0 0 Z " fill="#070707" transform="translate(778,710)"/>
<path d="M0 0 C0.625 1.8125 0.625 1.8125 1 4 C0.01 5.485 0.01 5.485 -1 7 C-1.24246783 10.20379124 -1.24246783 10.20379124 -1.125 13.6875 C-1.10695313 14.86699219 -1.08890625 16.04648437 -1.0703125 17.26171875 C-1.04710937 18.16535156 -1.02390625 19.06898438 -1 20 C-3.6618004 17.3381996 -3.29866602 15.95750737 -3.3125 12.25 C-3.24679051 7.27997339 -2.74674319 4.12011479 0 0 Z " fill="#1B1B1B" transform="translate(354,560)"/>
<path d="M0 0 C-0.33 1.32 -0.66 2.64 -1 4 C-2.65 4 -4.3 4 -6 4 C-6.33 2.68 -6.66 1.36 -7 0 C-3.86650268 -1.04449911 -3.01031744 -0.93423645 0 0 Z M-6 1 C-6 1.66 -6 2.32 -6 3 C-5.34 2.67 -4.68 2.34 -4 2 C-4.66 1.67 -5.32 1.34 -6 1 Z " fill="#0F0F0F" transform="translate(796,713)"/>
<path d="M0 0 C1.98 0 3.96 0 6 0 C6 1.65 6 3.3 6 5 C5.01 5.495 5.01 5.495 4 6 C4 5.01 4 4.02 4 3 C3.34 3 2.68 3 2 3 C1.34 4.32 0.68 5.64 0 7 C0 4.69 0 2.38 0 0 Z " fill="#090909" transform="translate(508,705)"/>
<path d="M0 0 C1.5 1.375 1.5 1.375 3 3 C3 3.66 3 4.32 3 5 C3.61875 4.79375 4.2375 4.5875 4.875 4.375 C5.57625 4.25125 6.2775 4.1275 7 4 C7.66 4.66 8.32 5.32 9 6 C5.04 6 1.08 6 -3 6 C-2.01 5.67 -1.02 5.34 0 5 C0 3.35 0 1.7 0 0 Z " fill="#191919" transform="translate(835,714)"/>
<path d="M0 0 C0.99 0.66 1.98 1.32 3 2 C3 3.32 3 4.64 3 6 C1.35 6 -0.3 6 -2 6 C-2 5.34 -2 4.68 -2 4 C-2.66 4 -3.32 4 -4 4 C-4.33 4.66 -4.66 5.32 -5 6 C-5 5.01 -5 4.02 -5 3 C-3.35 3 -1.7 3 0 3 C0 2.01 0 1.02 0 0 Z " fill="#212121" transform="translate(386,705)"/>
<path d="M0 0 C1.98 0 3.96 0 6 0 C6 0.99 6 1.98 6 3 C4.35 3 2.7 3 1 3 C0.67 4.32 0.34 5.64 0 7 C-0.66 6.67 -1.32 6.34 -2 6 C-1.34 4.02 -0.68 2.04 0 0 Z " fill="#080808" transform="translate(824,705)"/>
<path d="M0 0 C0.66 0.33 1.32 0.66 2 1 C-1.3 4.3 -4.6 7.6 -8 11 C-8 7.0234755 -6.61988497 5.9109833 -4 3 C-1.75 1.1875 -1.75 1.1875 0 0 Z " fill="#101010" transform="translate(439,604)"/>
<path d="M0 0 C1.98 0 3.96 0 6 0 C5.625 1.9375 5.625 1.9375 5 4 C4.01 4.495 4.01 4.495 3 5 C3.99 6.485 3.99 6.485 5 8 C2.525 7.01 2.525 7.01 0 6 C0.33 5.01 0.66 4.02 1 3 C1.99 3 2.98 3 4 3 C4 2.34 4 1.68 4 1 C2.68 0.67 1.36 0.34 0 0 Z " fill="#2A2A2A" transform="translate(454,704)"/>
<path d="M0 0 C6.0546875 -0.1953125 6.0546875 -0.1953125 8 0 C8.66 0.66 9.32 1.32 10 2 C9.34 2 8.68 2 8 2 C7.67 2.99 7.34 3.98 7 5 C6.34 4.67 5.68 4.34 5 4 C5 3.34 5 2.68 5 2 C3.02 2 1.04 2 -1 2 C-0.67 1.34 -0.34 0.68 0 0 Z " fill="#202020" transform="translate(726,704)"/>
<path d="M0 0 C1.32 0.66 2.64 1.32 4 2 C4 2.66 4 3.32 4 4 C3.401875 4.103125 2.80375 4.20625 2.1875 4.3125 C-0.28243264 5.08876455 -1.32251235 6.07088921 -3 8 C-1.125 2.25 -1.125 2.25 0 0 Z " fill="#101010" transform="translate(633,600)"/>
<path d="M0 0 C2.31 0 4.62 0 7 0 C6.01 0.495 6.01 0.495 5 1 C5 1.99 5 2.98 5 4 C5.66 4.33 6.32 4.66 7 5 C5.35 5 3.7 5 2 5 C2 4.01 2 3.02 2 2 C1.34 1.34 0.68 0.68 0 0 Z " fill="#313131" transform="translate(683,704)"/>
<path d="M0 0 C0.99 0.33 1.98 0.66 3 1 C4.1875 3.5625 4.1875 3.5625 5 6 C3.68 5.67 2.36 5.34 1 5 C0.67 3.35 0.34 1.7 0 0 Z " fill="#181818" transform="translate(542,714)"/>
<path d="M0 0 C1.32 0.33 2.64 0.66 4 1 C3.67 2.32 3.34 3.64 3 5 C2.01 5 1.02 5 0 5 C0 3.35 0 1.7 0 0 Z " fill="#393939" transform="translate(499,707)"/>
<path d="M0 0 C0.66 0.33 1.32 0.66 2 1 C1.67 1.66 1.34 2.32 1 3 C1.66 3 2.32 3 3 3 C3.33 2.34 3.66 1.68 4 1 C3.67 2.65 3.34 4.3 3 6 C2.01 6 1.02 6 0 6 C-0.99 6.495 -0.99 6.495 -2 7 C-1.34 4.69 -0.68 2.38 0 0 Z " fill="#131313" transform="translate(392,576)"/>
<path d="M0 0 C1.32 0.33 2.64 0.66 4 1 C3.67 2.32 3.34 3.64 3 5 C2.01 5 1.02 5 0 5 C0 3.35 0 1.7 0 0 Z " fill="#2D2D2D" transform="translate(601,707)"/>
<path d="M0 0 C-0.33 0.66 -0.66 1.32 -1 2 C-1.763125 1.95875 -2.52625 1.9175 -3.3125 1.875 C-6.22718416 1.77919176 -6.22718416 1.77919176 -9 4 C-9.33 3.01 -9.66 2.02 -10 1 C-3.71428571 -1.42857143 -3.71428571 -1.42857143 0 0 Z " fill="#2E2E2E" transform="translate(705,704)"/>
<path d="M0 0 C1.65 0 3.3 0 5 0 C4.01 0.495 4.01 0.495 3 1 C3 2.65 3 4.3 3 6 C2.01 5.67 1.02 5.34 0 5 C0 3.35 0 1.7 0 0 Z " fill="#272727" transform="translate(474,704)"/>
</svg>
